/* XPM */
static char *db9d4be1ec5f42caa39a977d84a2b486jRR99wMuT6gHAaFr[] = {
/* columns rows colors chars-per-pixel */
"50 50 233 2 ",
"   c #030405",
".  c #05040B",
"X  c #08070C",
"o  c #0B0B0C",
"O  c #090808",
"+  c #0F100E",
"@  c #13120D",
"#  c #1C160B",
"$  c #050513",
"%  c #080713",
"&  c #0C0C13",
"*  c #0D0C1C",
"=  c #07061A",
"-  c #100E18",
";  c #0E1013",
":  c #0E1118",
">  c #131313",
",  c #171814",
"<  c #1B1B15",
"1  c #13131B",
"2  c #1C1C1B",
"3  c #191617",
"4  c #110E0C",
"5  c #231A0C",
"6  c #241D14",
"7  c #1F201A",
"8  c #2B2214",
"9  c #22231C",
"0  c #29271B",
"q  c #352C1A",
"w  c #3C260B",
"e  c #0D0C21",
"r  c #131224",
"t  c #191A25",
"y  c #15132B",
"u  c #18172C",
"i  c #1C1B2C",
"p  c #171C26",
"a  c #171430",
"s  c #191633",
"d  c #1D1B34",
"f  c #1E1C39",
"g  c #120F2B",
"h  c #211D27",
"j  c #201E34",
"k  c #211E3A",
"l  c #1E2326",
"z  c #242522",
"x  c #272824",
"c  c #2A2B24",
"v  c #24222D",
"b  c #2B2D2B",
"n  c #292525",
"m  c #2E312C",
"M  c #2F3026",
"N  c #33342C",
"B  c #36382D",
"V  c #3A3A2E",
"C  c #343126",
"Z  c #242335",
"A  c #2A2D33",
"S  c #24223C",
"D  c #28263D",
"F  c #2B2A3B",
"G  c #262E34",
"H  c #2C3235",
"J  c #2E353D",
"K  c #343531",
"L  c #3B3D33",
"P  c #30353C",
"I  c #343A3C",
"U  c #3A3C3A",
"Y  c #373835",
"T  c #322F23",
"R  c #503510",
"E  c #3E4134",
"W  c #3E423D",
"Q  c #3F432F",
"!  c #5C421E",
"~  c #6A4919",
"^  c #76511D",
"/  c #714B18",
"(  c #424336",
")  c #43443B",
"_  c #46493C",
"`  c #4A4C3E",
"'  c #484636",
"]  c #53533D",
"[  c #50482E",
"{  c #644C25",
"}  c #765829",
"|  c #6D5125",
" . c #7E6238",
".. c #272441",
"X. c #292642",
"o. c #2C2944",
"O. c #2E2C48",
"+. c #312E4B",
"@. c #302E46",
"#. c #353C43",
"$. c #393D43",
"%. c #34324D",
"&. c #363451",
"*. c #393653",
"=. c #3C3A55",
"-. c #3E3C58",
";. c #2F3843",
":. c #413E5A",
">. c #3C444B",
",. c #3C4346",
"<. c #3A4250",
"1. c #434541",
"2. c #454942",
"3. c #4A4C42",
"4. c #4C4F49",
"5. c #4E5143",
"6. c #4E514A",
"7. c #525445",
"8. c #565945",
"9. c #54564A",
"0. c #57594A",
"q. c #5A5C4B",
"w. c #45425D",
"e. c #4B495C",
"r. c #595B51",
"t. c #5F614D",
"y. c #5C6047",
"u. c #5D6053",
"i. c #64644D",
"p. c #636554",
"a. c #666955",
"s. c #696B54",
"d. c #6B6C5A",
"f. c #67695A",
"g. c #6E715A",
"h. c #73755C",
"j. c #79775A",
"k. c #716E55",
"l. c #494662",
"z. c #4D4B65",
"x. c #4A4763",
"c. c #504E6A",
"v. c #54526D",
"b. c #56556A",
"n. c #5C5973",
"m. c #5A5873",
"M. c #615E78",
"N. c #7A7C63",
"B. c #767963",
"V. c #65637C",
"C. c #6A687D",
"Z. c #6C6E62",
"A. c #605A44",
"S. c #895A1A",
"D. c #8A5C23",
"F. c #976A29",
"G. c #AC772D",
"H. c #A3681D",
"J. c #C67B20",
"K. c #827E65",
"L. c #8A7047",
"P. c #7E8165",
"I. c #C28435",
"U. c #AB8445",
"Y. c #83856C",
"T. c #888769",
"R. c #8A8C71",
"E. c #8F9177",
"W. c #9A9C7C",
"Q. c #969977",
"!. c #8F926C",
"~. c #9FA27C",
"^. c #A4A87C",
"/. c #D3A454",
"(. c #E6A855",
"). c #CBA769",
"_. c #EDB76A",
"`. c #C18E49",
"'. c #FFC977",
"]. c #6E6C84",
"[. c #6A6782",
"{. c #706E87",
"}. c #75738D",
"|. c #7A788C",
" X c #7C7A92",
".X c #817F94",
"XX c #858399",
"oX c #898898",
"OX c #98979C",
"+X c #888791",
"@X c #9DA181",
"#X c #A3A583",
"$X c #AAAC89",
"%X c #A9AC85",
"&X c #AEB28A",
"*X c #B2B48D",
"=X c #B7BB8C",
"-X c #B9BB92",
";X c #8D8BA2",
":X c #8986A0",
">X c #9493A4",
",X c #9C9BA4",
"<X c #9997AB",
"1X c #9D9BB1",
"2X c #918FA4",
"3X c #A09FAE",
"4X c #A7A5B7",
"5X c #A7A5AF",
"6X c #BDC094",
"7X c #C2C595",
"8X c #C5C995",
"9X c #CACD9A",
"0X c #C7C999",
"qX c #CED19D",
"wX c #D2D69D",
"eX c #F3CC88",
"rX c #D5D9A3",
"tX c #DDE1A3",
"yX c #E6EAA9",
"uX c #EEF3AD",
"iX c #F2F7AC",
"pX c #F4F9B2",
"aX c #FBFDB5",
"sX c #FCFFBA",
"dX c #F6F5B4",
"fX c #FFE2A5",
"gX c #B9B8C9",
"hX c #B0AEC2",
"jX c #C2BFD2",
"kX c #C8C8D6",
"lX c #FFFBDA",
"zX c #DAD9E6",
"xX c #EBEAF4",
/* pixels */
"                                                          O           O   O                         ",
"X #.<.;.#.#.#.#.#.#.;.J G ;.#.#.#.J 2.6.` T.!.Q.~.Q.^.Q.!.!.!.s.5.s.u.J J G J ,.#.;.;.;.;.;.J J #.#.",
"& $.;.;.;.F ;.J ;.J J J J G ,.0.P.Q.%X=X9XrXtXyXiXiXiXpXuXyXtXwX8X6X&XQ.d.W W H J p l G G H G H A K ",
"; $.#.;.J J ;.J J J H ,.t.P.^.*X6XqXrXyXyXpXaXaXaXaXaXaXiXiXuXyXtXtXrX8X6X&XQ.P.t.6.U J H H H H H H ",
"& ;.;.J ;.;.J J J U t.P.E.%X*X=X*X%X6XqXiXpXaXaXiXiXiXiXiXuXyXyXyXtXqXwXrX6X-X$XE.h.a.a.H H H H J H ",
"; ,.W J J J J H 5.B.R.#X$X&X-X&X^.6XtXpXsXaXaXaXaXlXsXpXuXuXuXyXyX^.j.^.rX0X0X6X*X#XE.Y.h.6.H H J H ",
"; I ;.J I Z.5.E p.R.@X$X&X-X*X%X9XyXtXwX9X9X8X7X8X8X6X9X8X8XqX6X!.h.h.^.tXqX9X6X&X$X$X$X#X@XZ.H @.H ",
"o ,.,.u.Y.P.R.N.N.W.&X*X#XY.h.Y.^.Q.h.7.' ( Q Q Q ( ] ] ] ] 7.y.t.s.g.h.@X%X%X6X6X-XQ.W.#X#X#XW.r.U ",
"; ,.W W.&X*XY.Q.-X*XN.d.s.d.t.5.B x x m V ` y.s.s.s.i.7.( Q V ` y.i.q.7.] 0.a.B.R.W.$XW.R.E.#X#XW.U ",
"; ,.4.g.Y.-X0X7X-XQ.Y.B.8.M 2 N ( 7.s.j.P.h.y.` B c c _ s.h.a.8.q.g.j.P.N.a.5.E ` d.@X-X%XW.@XN.B.U ",
"; ,.2.f.7.p.#X$XW.N.q.N N 9 , N s.s.7.' M 2 2 2 7 2 2 x _ 0.g.P.p.L 9 N _ i.h.d.7.V p.E.#X$XB.0.d.1.",
"o ,.,.f.4.p.E.Y.p._ x ( N 0 7 > @ o X . o & % % X   $ . . . X ; ; > 2 2 > , 0 E ` ` Y a.Y.Q.j.7.p.3.",
"; I W 0.` N.h.0.q.) z 9 > @ o X o $ . $ $ = = = u F i F = = * = $ $ % % & o o o 3 0 W 7.t.B.N._ q.1.",
"o #.) 7.p.B.8.q.0.9.c     . . . $ $ = e g y y D =.<.%.z.O.u y r r e * & % X X X X o , N 0.0.N.p.7.2.",
"o ,.) 0.B.9.7.q.7.u.)     . & * r y a a s S %.+.O.=.-.l.S *.O.f y y y r r : 1 o X   O + ( 7.0.B.0.3.",
"; #.2.g.p.3.0.0.7.7.n   & & t d r y f X.%.%.S s O.e.z.v.a d O.%.%.S a y y d t 1 & X o   m q.` d.d.3.",
"> 1.2.p.0.7.7.0.3.4.2 X - * e k %.%.O.o.k f f ..&.m.n.n.S ..f f ..O.O.&.+.y * * 1 & o   2 7.5.q.d._ ",
"& #._ p.3.0.3.7.` 7.. & * e y X.f &...a f k S X.v.V.M.}.O...k f s s +...S S y e = * + X o ) 0.7.p.) ",
"& #.U a.` 7.` 7.7.3.  & i y S k a s :.&.f X.z.[.M.C.b.}.m.V.&.k k *.+.y y X.S r i u & X   ) q.) p.W ",
"> #.) p.` 7.5.3.r.N . * F %.k g s s f z.w.n.[.-.w.+Xb.|.o.m.{.x.c.*.s s s g X.%.F * & % o L 9._ p.3.",
"; $.1.q.3.' 3._ p.z % r j j -.O.a f a l.}.*.%.*.b.+Xe.XX+.*.&.v.}...s f f &.&.f f = * % X L _ 5.q.( ",
"& $.2.9.` V 3.( u.2 & r j g f x.c...%.[.w.].*.x.oXoXe.4Xm.:.z.n.w.[.S &.m.-.d y k y * % . Y L ` 0.W ",
": >.4.5.) N ` ) 0.1 & i i u f s z. X}.&.O.[.>XXX1XOXz.4X X2X2X:.o.v.}.].*.s d a s u * & o U V ( 5.1.",
"& J 5.` ( N 3.` 0.> % i u s k k X.{.:Xm.%.m.kXm.n.OXV.4X&.<XhXO.:.{.XXm.f S d s s j e $ 1 1.N ) 5.) ",
"  J 4.) ( z _ ` r.1 & r y s k +.v.&.w.<X}.;X}.,XC.,X|.1XV.1X.X.X1XXX&.w.z.X.f s y u y $ 1 ) x ) _ E ",
"    L ( L 0 L _ r.2 X r F o.&.l.*.O.o.l.gX3X&.XX,X,X.XgX3Xc.M.zX;X*.%.O.w.x.%.O.o.S F 1 1 U n L ) N ",
"  l 1.L N 9 L 3.t.x % r D =.v.m.l.O.O.x.:XgX,X-.kX,XXXxXC.z.kX4X X*.O.&.l.m.v.-.D s y % & K 9 N E L ",
"  #.,.V x 9 L 7.9.1.o i j k k +.v.[.{. Xc.l.4X;XoX3X+XzX:.kX{.*.[.2X X].x.O.f f f i r * % m z b L U ",
"; #.U ) N 2 E 9.7.9.& i s ..O.o.k o.-. X1X}.c.hXjX,X+XkX4X].b.oX;XV.-.O.O.O.O.X.S u j 1 & N 2 K ( Y ",
"; #.Y ( E 9 N B 9.Y * j f ....+.&.&.+.k *.oXhX<XzX,XOXxXOXoX>Xv.O.&.&.*.&.%.o...D d Z 1 1 K 9 E _ K ",
"; #.K ' ( 9 B T B n 1 d ....o.X.%.*.w.w.*.X.b.,XkX3X;XxX5XC.*.:.w.l.*.*.&.o.o.X.D Z l 1 n Y z ( _ m ",
"; #.K V C 0 c 8 9 x & i Z ..o.O.%.*.*.:.w.w.w.*.C.5X<X4Xw.w.c.l.:.w.-.&.O.S D X.Z v v & 7 c x N E m ",
"; #.m 0 8 q q q 5 @ - h j D @.o.%.%.%.&.-.-.w.z.v.3XOX Xl.x.l.-.-.-.*.&.+.j k D h h 1 1 q m 7 z c m ",
"@ #.m 5 5 } /.eX). .5 > h Z D X.%.%.%.+.w.*.w.l.z.>X,X[.-.x.l.-.*.-.*.o.k j j h 6 8 L.).).G.[ < 2 b ",
"; ,.x @ R G.fXlXfX'.} O n j k D o.%.%.%.*.-.w.w.l.oX,Xm.:.w.-.*.*.&.&.X.o.D h h 4 G.lXlXeX/.F.! @ x ",
"> ,.b 5 / S.`._.(.D.} 3 6 h j j X.O.%.*.%.*.-.w.w.|.OXc.-.*.*.&.&.&.+.X.F F h 3 5 F.U._.(.I.S.| 8 v ",
"& ,.x 5 R ^ R D.G.{ | 6 > h h k X.O.%.%.*.*.*.w.-.].2Xx.-.*.*.*.%.O.S X.G G n > w R ~ J.H.w ~ ! 6 z ",
"o #.z 4 8 ~ G.F./ G.{ # 4 3 n j d F X.%.%.*.*.-.*.C.2Xl.&.&.+.&.o.o.X.k F A h 4 8 ^ H.R H.G./ 5 + 9 ",
"> I _ ' < # 5 ~ } { 4 # < 1 3 h v Z j F X.%.*.*.&.[.:X-.&.+.o.X.S ..k F F v 2 2 o # S.^ / 5 # 5 B E ",
"o I d.k.i.] V q 0 T T ' s.) 1 1 t Z X.o.o.+.&.&.%.n.XX*.&.&.O...S S k S Z v f.a.c 8 q 8 8 C [ 8.k.d.",
"o I ) 7.q.s.k.j.K.R.K.d.u.9.3 * t Z F o.O.O.+.%.+.v.}.*.+.%.+.o.f S j S j t Z.E.Y.T.T.K.k.j.s.A.5.( ",
"> #.J b ` _ 3.8.8.a.q.7.Y 1 % r t j X.D X.X.O.O.+.x.{.=.O.+.X.k S d d d r $ l 9.8.p.g.0.8.7.3.` Y H ",
"+ #.J b 9 L E E ) L M n 1 . % 1 i Z D S D o.X.o.+.l.].*.X.O.k k S S d d i X . > N E _ 3._ 2.` A J J ",
"o $.J b x 4 7 x 3 C 6 1 n X % r Z d S f S X.X...+.:.V.&...o...D s f S Z u . > 7 1 0 x 2 9 6 2 T J H ",
"+ $.J A M o 7 ` 2 8.M < x X $ r j Z Z k k ........:.v.+...X.X.k S S s i r . 2 7 > 3.5.7 3.B z B I J ",
"; $.P A x 7 @ t.x 8.N 2 0 X $ * t d d Z k ..k D ..+.w.@.k ....D S S u r *   9 7 , 8.7.c p.< c m I J ",
"- $.P A b , o i.x 0.B + x & . & r u u j k S k ..D &.l.+.j k D S Z d u 1 & O 9 9 @ 8.q.0 a.+ 7 H ;.H ",
"- $.P A m @ O 7., ( '   9 &   . & * r u j j k D D *.c.%.j k D k d y 1 * X   x 9 + i.E 7 q.  , K J H ",
"* >.>.J J > O B O c Q   o , + ; 3 1 * = = $ = = = S F i $ = = = % % & % .   < @ 4 q.0 o E   o m J J ",
"& J ,.K b < 7 7 7 7 7 7 M M , 9 W 6.2.1.:.L H F F i u Z Z A H H b I ) ) 7 > 7 x 9 c 0 , 9 @ , 9 m x "
};
