/* XPM */
static char *_48f09ded529417ebd2ebf836b09c946VURu63iduGCtygAl[] = {
/* columns rows colors chars-per-pixel */
"50 50 34 1 ",
"  c #020405",
". c #030609",
"X c #050809",
"o c #0C0C0E",
"O c #0E0F11",
"+ c #0E1013",
"@ c #0E1118",
"# c #111113",
"$ c #13161C",
"% c #161A1E",
"& c #171F26",
"* c #1B1E22",
"= c #1D2126",
"- c #1E242A",
"; c #23262C",
": c #24282E",
"> c #282A2C",
", c #262C31",
"< c #2A2E34",
"1 c #2D2F38",
"2 c #2B3136",
"3 c #2D343B",
"4 c #2E383C",
"5 c #31363C",
"6 c #31383E",
"7 c #2F3740",
"8 c #2F3842",
"9 c #323540",
"0 c #343B42",
"q c #393C43",
"w c #3C4246",
"e c #3C444B",
"r c #3A4250",
"t c #404346",
/* pixels */
"        .  .  ...            .  .                 ",
".qr800000083230088838850qXqr000000087270007833340q",
"@q87738737833,73=-22<,<<1#q83777738373,73&-2222<22",
"Oq08777738213822:,3222232#q07737383323732,,3222232",
"@q0473833323<223322222232+w03777343<2,321331<22252",
"+q0338835222,2<<,,,<<2112+00378365232<12,,,,,22252",
"+6435533211<,,:>,-,<11153+0635331251<:::,,;:<11155",
"O0033,3111>,;;;:-,<<31155o0043,211<,>;;;:-;<111151",
"Oww42>222>;;:>;::,222<253Oww22,22<:;;>;>;:,,22,295",
"#ew2121222>>:;;:,22222485#ew2222221>;>;;>,22222495",
"oew212122<>=;,<322222,302otw223222<:=;:<322222<461",
"o4w,<1<:,;;=;,,,222222405oq0222,<::--;<<<222222405",
"+43,2,;;;;:;::,;<22223462+03,2:-,-:::::::222223455",
"ow4,,-;;:;;;;:,,222223465o042,;;-:::-:::<222223465",
"ow422,;::;::;:,2,2233456<oq5<1:::-:::::,2,2223345<",
"+63<32,;::::,22,,22365452#63122,:::::,23,:22356452",
"#65<2,;;:::::,23232354433#6322>::::::-,22232355451",
"#q3<<,;;::::,,12233250003ow3<<::;:::-2222233350005",
"oq5<<==>-::::,22233302201#q521==:;::,,,222333022q3",
"#051<;>2,::,-,22218708202#q5<<;:2::::-<21237308201",
"#q512222,:,,>222178890843#q5<<122>>,,,<21138880052",
"@q5<222<222222,3177788843@q0<<<22222222,1738488352",
"@re32222<2243226883466465@tr2522222233228843304465",
"O3t063223432,$;032235265;o6t652522553:$;833235435>",
" 3r063253332>$;023255456;X3eq93333523:$;033<25435;",
"     X  XX  oX..X.    ..          X  oX    .X  .  ",
" *90555586=$065654666546%o>ewwwwewe:;eewwwwwwwwwt>",
".qr800008888,8qq0363553q6oqe80008w883,6qq03846346w",
"+q83438338383,83&-2,2,2,2@q87737337783,83=-,<2<2<2",
"+w88038783223822:24222232Ow07837878,22832,,7222222",
"O00384388323,222332222232+083877737,22223432222252",
"@q0358333322,22,2,,,22232+w0338338222,22,,,,222252",
"+6846655112,,,>,:;:>22151#6055635321,,,>,;>;<<1191",
"+0642:25<<>:>;;;;:<211191#0062,2211>>;>;;;>>111191",
"+ww42222<>;>;;>;:,2212254Ow052<22<:>;:::;;<<221<55",
"+ew222221<>:,;;:,22222502@we222222<:;:;;,<1<22<505",
"oew222221<,*;,<12,222,305oww222111<:=;,,222222<202",
"o00<2<<,,;;;;,<<222222402ow622<<>>:-=;,<<222222402",
"O04<2:;;;;:;::;;222223446#65,2:-:;;;:::::<22224463",
"o04,<--:;;;;;;;1222223485o662,-;:>;:>;:;<222223465",
"o031<,::;;-,-:,2,2223740<oq4<<,>::::,-,,2<2223336<",
"#05<22::;,::,222,13373432#65<11,:,-,:,,2,,23373852",
"#65<1<:::;,::,22211383432#q5<1<;::,-:-,23232204465",
"ow5<<:;;:,;:,222233230001#65<<;>::,-:2222223340865",
"oq522==>-::::,22217102202#662<;*:;::-,,212333022q2",
"#q522-;2,:-:-,23238708205#662<;;2:-:,-,22<39508264",
"#q5<2222,,,,,221339900051@t5<1223>,,,,221138900862",
"@q5<<<2<22222,,3338388351#q5><22<22222,,3773888362",
"@er3322<22226226663565462@ee4322<<2245226664405463",
"o5e055112661>%:653245446;o4eq65224532>$;644225455;"
};
