/* XPM */
static char *_4a34cbc09474965eece170ea16f667fhhRgHotGM1n41tQp[] = {
/* columns rows colors chars-per-pixel */
"50 50 191 2 ",
"   c #030405",
".  c #0A0705",
"X  c #0C0B06",
"o  c #050609",
"O  c #060809",
"+  c #0B0C0C",
"@  c #110701",
"#  c #170A01",
"$  c #1B0D01",
"%  c #1D140A",
"&  c #0E0F11",
"*  c #0E1013",
"=  c #0E1118",
"-  c #111114",
";  c #13161B",
":  c #16191D",
">  c #181A1E",
",  c #300E00",
"<  c #241001",
"1  c #2C1401",
"2  c #271802",
"3  c #2C1C02",
"4  c #231B0C",
"5  c #2B1E0B",
"6  c #341D02",
"7  c #3A1D03",
"8  c #341402",
"9  c #342204",
"0  c #3C2402",
"q  c #3A2903",
"w  c #171F26",
"e  c #1A1D21",
"r  c #1D2126",
"t  c #1E2429",
"y  c #202326",
"u  c #23272C",
"i  c #24282E",
"p  c #282A2C",
"a  c #262C31",
"s  c #2A2E33",
"d  c #2D2F38",
"f  c #2B3136",
"g  c #2D343B",
"h  c #2E383C",
"j  c #31363D",
"k  c #31383E",
"l  c #421D03",
"z  c #491F03",
"x  c #442503",
"c  c #4C2403",
"v  c #4B2B03",
"b  c #432B0A",
"n  c #542904",
"m  c #5C2C05",
"M  c #572305",
"N  c #453608",
"B  c #4B3506",
"V  c #553504",
"C  c #5C3404",
"Z  c #5D3904",
"A  c #573A05",
"S  c #632E06",
"D  c #683206",
"F  c #643D07",
"G  c #6D3904",
"H  c #653404",
"J  c #733C05",
"K  c #4C440F",
"L  c #5E4206",
"P  c #5B480E",
"I  c #554310",
"U  c #6B4305",
"Y  c #754403",
"T  c #7B4206",
"R  c #754805",
"E  c #7A4909",
"W  c #795308",
"Q  c #795411",
"!  c #7D6210",
"~  c #7E671A",
"^  c #2F3740",
"/  c #2F3842",
"(  c #323540",
")  c #323A43",
"_  c #313A41",
"`  c #343B40",
"'  c #333E43",
"]  c #363D42",
"[  c #323B45",
"{  c #343B44",
"}  c #373B47",
"|  c #373D45",
" . c #343B42",
".. c #393C43",
"X. c #3C4447",
"o. c #3C4246",
"O. c #394349",
"+. c #3D454C",
"@. c #3A4250",
"#. c #404346",
"$. c #854B05",
"%. c #894D06",
"&. c #824D08",
"*. c #875102",
"=. c #8C5304",
"-. c #8D5804",
";. c #8A5508",
":. c #815B08",
">. c #8C5A09",
",. c #86560E",
"<. c #945606",
"1. c #965A05",
"2. c #9C5E05",
"3. c #A05F06",
"4. c #8F6408",
"5. c #9F6106",
"6. c #9B6308",
"7. c #94600A",
"8. c #97710A",
"9. c #9B760C",
"0. c #8F6815",
"q. c #916C18",
"w. c #996D11",
"e. c #A36305",
"r. c #A86706",
"t. c #A66B05",
"y. c #AA6B06",
"u. c #A36E0A",
"i. c #AA6F09",
"p. c #AE7304",
"a. c #A57A06",
"s. c #AC740A",
"d. c #AD790C",
"f. c #BE7F06",
"g. c #B27509",
"h. c #B47B0A",
"j. c #BA7E0A",
"k. c #B37707",
"l. c #AE7D12",
"z. c #B17F11",
"x. c #AD8109",
"c. c #B6810E",
"v. c #BC840B",
"b. c #A88C19",
"n. c #B08913",
"m. c #B6991D",
"M. c #958922",
"N. c #C2850A",
"B. c #C48C0C",
"V. c #C78E0A",
"C. c #CA930D",
"Z. c #CE990D",
"A. c #C3900E",
"S. c #D19C0F",
"D. c #C09417",
"F. c #CC9B12",
"G. c #C19919",
"H. c #C49911",
"J. c #D19D12",
"K. c #D5A00F",
"L. c #D5A00F",
"P. c #DAA20F",
"I. c #C8A11D",
"U. c #D7A711",
"Y. c #D5A312",
"T. c #DAA510",
"R. c #DAAC16",
"E. c #D5AB1A",
"W. c #D3A119",
"Q. c #D6B01D",
"!. c #DEB61B",
"~. c #DDB91F",
"^. c #E2B81C",
"/. c #C3A120",
"(. c #D8B421",
"). c #DCBD25",
"_. c #DFBF28",
"`. c #CEB935",
"'. c #EBC01E",
"]. c #DDC32A",
"[. c #DFCA2E",
"{. c #DFCA30",
"}. c #E3C729",
"|. c #E1CD32",
" X c #E0CD3A",
".X c #E4D244",
"XX c #E8D959",
"oX c #E8DB59",
"OX c #E5D961",
"+X c #E7DB72",
"@X c #EFEC90",
/* pixels */
"                            o           o                                                           ",
"o } @.[ [ [ [ } [ [ ( h s ^ [ [ / ^ ^ g g ^ g ` | o } +./ } [ [ [ / [ _ ^ s / [ | [ g ^ h ^ h g ] ] ",
"* | [ g ^ g h g g ^ h ^ g a ^ g r t f f f f s s f - | / g ^ g ^ ^ ^ ^ ^ ^ g a g f w t f f f s s s d ",
"& } [ h ^ ^ ^ ^ ^ ^ d s g ^ g f a a g f f f f f f & | } ^ ^ h ^ g ^ g g f g ^ g f a s g f f f f g s ",
"& | [ h ^ ^ ^ g ^ g s g s f f g g f f f f f d g f & | _ g ^ h ^ h g g s g s g f f ^ g d s f f g j f ",
"& | _ h h h ( g j s g s s f s s a a a s f f d d g - | _ g ^ ^ h j j d f f a s s s a a a s f f s f g ",
"& ` h h j j g g j d s a a a i p a i i a f d d ( g + ` _ h j j g j d d d a p a i a a t i a s d d j j ",
"& .._ j g a d g s s s p u i i i t i s f d d d ^ j - ` _ h g a d j s s a p i u u i t a a s g d d ( d ",
"& X.o.h d s f f s p u u p u i u p s f f f s f ( j + X.' g f a f f s p u u p p p i p a a f f f f ( j ",
"- X.O.f f f f f f s p p i u u i p f f f f f g _ j - +.O.f f f f f f s s p u i i i a f f f f s h ( j ",
"+ X.O.f d d f d f s p r u a a g f f f f i O O O .   o o O O i g f d a i e u i s g f s f f f a h ` d ",
"+ o./ a f d a p a u u r u a s s f a i + o + 8.a.a.a.a.x.9.+ . + u i i t t u a a a f f f f f f g ( j ",
"* k g s f i u i i u i u i i i i a - + X ! H.L.L.Y.Y.].|.|.`.0.O + * u i u i i a i a f f f f g h k j ",
"+ ] h s s t y u u i u u u i u a * O L U.].).J.S.Z.(.{.{. X@X+XU.L   + u i i i t f f f f f f g h k j ",
"+ } h f s a i i i u u i u i a a   x c.|.].J.S.Z.S.(.{.{.{.oXoX).f.A o t t i t f f a f f g g h h k a ",
"- ] h s g s a i i i i i a f a O X 6.w.~.v.C.J.J.Z.Y.].{.{.[.].E.j.F.X O t a f f f a f g g j h h j f ",
"- k j s f a u p a t t a i p p + W c.p.S.B.Z.J.S.S.Z.Y.E.E.E.E.S.f.G.M.& r u a f f f g f d j j h j d ",
"& ] j s s u u u i a a t a a r X p.S.c.B.S.K.S.S.S.J.S.Z.Z.S.Z.N.m.Q.).X : a f f f g g f g j } k ..j ",
"& ..j f s y y p i i i a i a o % t.S.S.y.5.v.A.Y.S.Z.J.L.C.v.e.z.Q.K.Z.4 O i a f f f g g h ` f f ( j ",
"- ] j s s u p f a t i a t a o *.r.h.k.T c l C v.Z.S.Z.v.C l z J k.S.L.x.  u a f d f f / h } ^ f ( d ",
"& ..j d f f f f a i a a i f o *.r.2.J S V K 9 c i.R.d.c < B P J J c.T.x.  a s f d g ^ ^ ( _ _ ^ j g ",
"- | d s s s s f f f f f f f   *.y.$.S J C.'.d.8 ;.}.q., E R.^.6.M u.T.x.  f f s d ^ g h / / ^ h k d ",
"= @.#.g g f f s f f f f j f   J p.s.%.$.;.;.7.d.v.R./.l.%.;.>.;.6.A.Y.t.  h f f / / h g h k k h k f ",
"& ^ #.| k g f g f j h h p ;   4 e.v.C.c.d.d.h.C.s.t.h.H.c.d.d.j.Z.L.h.5   a ; u / g g f g j g k k p ",
"  g +.] j g g f g j j f i ; - O J e.i.B.Y.u.;.G 2 9 2 5 B u.L.S.v.i.<.O : p ; u ] g g f g j h g k p ",
"      o   o       o     + O o o . S $.r.-.7 ;.:.C b.Q J W q -.t.t.2.X   o O O         o       o     ",
"  w ( ( k j j j j j w e ` _ a O o # m %.7 x R 2 q A ,.T v F x y.1.H < o e +.X.o.o.o...o.o.o.o.o.#.p ",
"  } @.[ ] _ [ ] [ [ ^ ^ s ^ : O m @ $ m T x >.J 6.E 0.W $.u.<.1.6 Z t.X ; s j } | _ h h h k j j k k ",
"* } / g h g ^ g g ^ ^ ^ g a   b 3.G @ $ v G %.%.%.%.%.%.%.H V 9 F A.R.P o h a / g r t s f f f a f f ",
"& } [ ^ ^ ^ ^ ^ ^ h f f g k   1.V.k.G @   $ 0 0 0 0 0 0 0 $   m j.!.oXm.  f / g f a a g f f f f f j ",
"& } [ h ^ ^ ^ g ^ g f f f f o -.Y.V.%.n # 7 n R R R R R n 7 $ T v.)..Xn.o a g f g g g g f f f f j f ",
"& O._ g h h ^ h h f f f a f O % p.v.5.T S <.3.k.Z.J.J.J.y.<.x v v.U.F.%   f f a a s a i s f f f j f ",
"& ] _ g j j j j g d d s p p e . 3.r.y.$.%.r.g.F.Y.^.oX.XJ.p.%.T r.v.B.O > p a p i i u i s s d d j d ",
"+ ] k h j a f f s s a p p u r & U y.e.J <.y.B.R.I.4.m.).Y.Z.2.J 2.r.U & y u p i p i p s d d d d j j ",
"* X.O.f f a f f s p i u i i r +   Z v n $.e.y.V.B.U 9.P.Y.v.$.S J %.. . y u p i u i a f f s d d j j ",
"- +.O.f f d f f s s a p i u i y       $ m T %.y.v.N.N.v.6.T D v c 6 o u i i u i i s s s f f s g k j ",
"& X.O.f f f g f d s i w y p s d * O     # m m 9 6 6 6 6 m S n 1 < o * u r u a a f f f f f f s f k j ",
"+ ] / f f f a p a i u t i a s s f *   < Y 2.<.n <   < n =.e.%.1 . & p y t u a a f f f f f f f k k j ",
"& k h a f i u u i u u u i i u i a > O   C *.$.Y 1   , Y $.*.V   O ; u u u i i i i a f f f f h h k g ",
"+ o.h a a u t u i u i u i i u s f f f & O O o O .   o o O o . + u u u u u i i i f f f f f f f h k g ",
"+ | j s s p i i i u u u t a a s a f f f g g h j s & ..j s s p i i i i i a t a a f a s f g g g g k s ",
"- ` j s g f a i i i a u a f f s a d g g ^ ^ h ^ f - k k s d d a i i i i a a a f f a f g g ^ g h j f ",
"& ] j s s a u i i i i a i a f f d f d g h h h h j - k k s d s u i i i i t a a f f f g f g j / h k g ",
"& ..j s s a i i i i i u a f f f g f f d h } _ ( d X k j d s i p i i i i i a f f f f f g g k ' / k g ",
"& ..j s f r r i t i i i i a f f f d ^ g _ f f } j X ..k f s y e i i i i i a a s s d g h g ` f f ..g ",
"& ] j d a t i f a i i i t s f g f g ^ ^ } h f _ j - ..j s s u p a i t i a t a f d d g ( j ` ^ f k g ",
"- ..j d f f f f a a a a a s f d d ^ ( _ _ [ _ j d = ] j d d f f f a a a a a s s f d g ( ( _ [ _ k f ",
"- ..j s f a f f f a f f s s a g g h ^ h / ( ^ j d & ..j a f a f f f f f s f s a g ^ h ^ ^ ^ ^ ^ k f ",
"= } @.h g f f f f f f f j f f k k k h k k k h k g * +.+.g g f f f a f g f h f f k k h h h _ k k ' g ",
"& ( +.` j g j f d j g g p : i k j g f f k h f k p + h +.] k g g f h g h f a ; i k g h f f k f k j u "
};
