/* XPM */
static char *_be95df64e1042f0d54e38558ac17c236Ju9vQ4nKc0mUyx8[] = {
/* columns rows colors chars-per-pixel */
"50 50 225 2 ",
"   c #030405",
".  c #0C0101",
"X  c #040609",
"o  c #060809",
"O  c #0B0C0E",
"+  c #0C0608",
"@  c #1A0D0B",
"#  c #14110E",
"$  c #1E110B",
"%  c #0E0E11",
"&  c #0E1013",
"*  c #0E1118",
"=  c #121214",
"-  c #1A1714",
";  c #1C1915",
":  c #13161A",
">  c #16191D",
",  c #1A1A1C",
"<  c #21100C",
"1  c #3B1808",
"2  c #211E1A",
"3  c #201617",
"4  c #301008",
"5  c #3D240F",
"6  c #362817",
"7  c #2C271E",
"8  c #171E25",
"9  c #1A1E21",
"0  c #1D2125",
"q  c #1E2429",
"w  c #222426",
"e  c #2E2523",
"r  c #23262B",
"t  c #24282E",
"y  c #2C2C2C",
"u  c #332B25",
"i  c #3B352B",
"p  c #262C31",
"a  c #292E33",
"s  c #2D2F39",
"d  c #2B3136",
"f  c #2D343B",
"g  c #2E383C",
"h  c #31363C",
"j  c #31383E",
"k  c #373735",
"l  c #411D0C",
"z  c #401E15",
"x  c #5E2C0D",
"c  c #492A16",
"v  c #552B14",
"b  c #53311C",
"n  c #5F351A",
"m  c #482D15",
"M  c #67391A",
"N  c #743E19",
"B  c #4E2B23",
"V  c #46372A",
"C  c #5A3B23",
"Z  c #543E2C",
"A  c #5D3D2A",
"S  c #563824",
"D  c #593B31",
"F  c #5D4328",
"G  c #4B433C",
"H  c #594835",
"J  c #604123",
"K  c #64432B",
"L  c #6E4B23",
"P  c #774A28",
"I  c #6D4C33",
"U  c #674A36",
"Y  c #74553B",
"T  c #7A5B3E",
"R  c #795936",
"E  c #705036",
"W  c #7D703D",
"Q  c #2F3740",
"!  c #2F3842",
"~  c #323540",
"^  c #343B42",
"/  c #393C43",
"(  c #353C4A",
")  c #3C4246",
"_  c #3C454B",
"`  c #3A4250",
"'  c #434444",
"]  c #494947",
"[  c #534D42",
"{  c #584E49",
"}  c #54544D",
"|  c #5C5348",
" . c #5A5652",
".. c #734F45",
"X. c #665849",
"o. c #7C5C43",
"O. c #755846",
"+. c #655B54",
"@. c #685D57",
"#. c #6E6044",
"$. c #7C6444",
"%. c #7D654B",
"&. c #736246",
"*. c #6A6159",
"=. c #716357",
"-. c #75685B",
";. c #7F6B5B",
":. c #766757",
">. c #74725C",
",. c #736F60",
"<. c #75756C",
"1. c #7B7869",
"2. c #6F716E",
"3. c #8C501C",
"4. c #845C3C",
"5. c #8B5F3E",
"6. c #915D3D",
"7. c #925828",
"8. c #A55C26",
"9. c #8A6538",
"0. c #92623C",
"q. c #9C6128",
"w. c #A26A39",
"e. c #B66A38",
"r. c #B2763B",
"t. c #855C49",
"y. c #8B6444",
"u. c #836A44",
"i. c #82644D",
"p. c #8C6B4D",
"a. c #876548",
"s. c #916C4F",
"d. c #966E45",
"f. c #9B704D",
"g. c #92724A",
"h. c #816553",
"j. c #8B6C59",
"k. c #876B54",
"l. c #847353",
"z. c #8D7659",
"x. c #93745C",
"c. c #977858",
"v. c #926952",
"b. c #A56D4A",
"n. c #A97A4D",
"m. c #B17D54",
"M. c #A27C5B",
"N. c #807262",
"B. c #897A69",
"V. c #8C7964",
"C. c #957D62",
"Z. c #9D7C63",
"A. c #9D7E69",
"S. c #8A7E73",
"D. c #A37E67",
"F. c #90875D",
"G. c #898056",
"H. c #B68248",
"J. c #B7885A",
"K. c #AB905D",
"L. c #8D856E",
"P. c #988665",
"I. c #8C8A7B",
"U. c #8A847B",
"Y. c #9D8574",
"T. c #9A8C77",
"R. c #9C9178",
"E. c #A4856B",
"W. c #A5896B",
"Q. c #A9896E",
"!. c #AC8564",
"~. c #A9946D",
"^. c #B6916A",
"/. c #A48973",
"(. c #A78A77",
"). c #B18E71",
"_. c #A69676",
"`. c #B29E76",
"'. c #B19779",
"]. c #B7997A",
"[. c #AEA076",
"{. c #B4A37C",
"}. c #BDA37C",
"|. c #C88C5E",
" X c #D78C54",
".X c #C59968",
"XX c #D09A6C",
"oX c #E39C64",
"OX c #C6A37A",
"+X c #E5A26A",
"@X c #919187",
"#X c #8F8B83",
"$X c #A69180",
"%X c #B79F85",
"&X c #B49681",
"*X c #BBA584",
"=X c #BBB292",
"-X c #BEB7A5",
";X c #C4AB89",
":X c #C8B289",
">X c #C3B69B",
",X c #CCB49A",
"<X c #C9BB9C",
"1X c #C7B796",
"2X c #D3BE9C",
"3X c #D4B898",
"4X c #DDAB88",
"5X c #D2BDA4",
"6X c #DBC59F",
"7X c #CEC3A7",
"8X c #D6C3A7",
"9X c #D8C4A1",
"0X c #D6C4AB",
"qX c #DAC6AC",
"wX c #DDCBAD",
"eX c #DBCBAA",
"rX c #DDD1AF",
"tX c #D5CAB6",
"yX c #DBCDB3",
"uX c #D4CCBB",
"iX c #D9D3BA",
"pX c #CAC5B4",
"aX c #E0CDB1",
"sX c #E4CAA9",
"dX c #DCD0C0",
/* pixels */
"                                        X                                                           ",
"X ( ` ! ( ^ ^ ^ ^ ~ ! Q a Q ^ ( ! Q Q Q g d a g h X g ( ~ / ^ ^ ( ^ ^ ! Q a Q ^ ( ^ f Q g g f f / / ",
"= / ! Q Q f Q f Q Q g Q f p Q f 0 q a d ] [ V i 7 3 0 r p Q f Q Q f Q Q Q f p Q d 0 q d d d d a a d ",
"% / ^ Q Q Q Q Q g Q s a f Q f d p p f d #.T T U H i - = q d Q Q f Q f f d f Q f d p p f d d d d f d ",
"% ^ ^ g Q Q f Q h g a f a d f d f f d d F I R n S V e O : p f Q g f f a f a d d d Q f s f a d d s d ",
"% ( ^ g f Q Q g h d f a a a a a p p p i E 7.P K K D V , & 8 p f h g s d a a d d p p p p a a d s h f ",
"% ^ g g h h f f s s s p p p y p t ) } #.W 3.N 1 1 @ ; y > * q d h d f s a t y p p p q t a s s a h h ",
"% / ^ g f t f s s a p y r r r t q a k [ d.3.7.b.t.. + : 0 : 8 a s s a p y r t r t q p p a f s s h h ",
"% ) ) g s y d d a y r r t r t r t y d V..X+XoX Xb.6 o o ; 0 r d d t y r r r r r r r t d d d d d h h ",
"= ) ) d d d d d d d y r r r t t a d d s y. X Xe.w.L 6 o = 0 p d d d d t r y r r t d d d d d p g ~ h ",
"O ) ) d s s s d d a t 0 r p p f d d f s 4.e.e.e.q.w.W >.y , 9 t d f d r 0 r t a f d d d d d p f ^ h ",
"O ! ) p d a a p p r r q r p a a d d d s B.^.w.8.m.K.~.7X-X<.; > 0 y r r q r p d y d d d d d d f h s ",
"& g g p d t r r r r t r t t p r p d g h | V.w.r..X3X>X7XrXiX<.& : 9 q r t t t t t d d d d d g g ~ h ",
"O ) g a a q q r r r r r r t t a d d ' h i ].H.H.OX0XiXtXrXrXiX<.> : 0 r q t t t p f d d d d f g h h ",
"O ) f a a p t t t r t r r p p a d d d ] c.J.J..X^.yXtXyXeX6XrXiX0 & 0 q t t t p a p a d f f h g h a ",
"& ^ f a f d p t t t p t p d d a p f *.R.3XP |.J.^.rXyXeX{.:XeXiX*.O & 0 t p p f a p f d f h j g Q d ",
"= j h a d a r t t t t t q p a f d Q @XI.2Xb.0.J.!.yX0X<X~.[.9XyXuX, & 0 q q p d d d f d f h h g h s ",
"% / h a a t r t t t t t a a d s d d I.R.~.4.L OX^.wX1X1X_.[.2XyXtX- & 8 t p d d d d f f s h ( j ^ s ",
"% / h d s 0 0 t q t t t p p a d d f I.R.=Xs.J y.3X6X<X{.F.F.;XqXiXy o > q t p a d d f f f ^ a f ( s ",
"% / h a a r t d t t t t q p f a d h 1.L.5X~.].T sX6X1X[.F.F.*X8XiXI.o = q q p k d d f ! g ^ g s j s ",
"% / h s d d d d p p p p t a d f f <.R.=XtX_.wX;Xu.9X1X{.F.F.%XqXiXL.  & 0 p a a s s f ! ^ ^ ( g j k ",
"= ( s a d y y d d d d d d d p f f #XR.<XeX_.qX8X~.9.OX[.l.F.OX6XeXL.  & q f a p d Q f ! Q Q Q f j f ",
": ` ' f f f d d p d d g g d d g ! U.R.5X'.W.9X0X1XK.R F.i [ ].6X<XT.X = r g f a ! ! ! g g h g g j h ",
"O g ` / h f d d g g g d p : r / g U./.,XY.<X*X1X;X}.u.&.k [ }.8X>X,.o , t t : t ! f f p g h g g h w ",
"  g ` / j f d h g h f d p : r / h U._.Q.I ].3X!.$.u.l.#.2 | *X>XpX- O 0 y t : t ^ g g a g h g g h w ",
"          X             O o       -.!.P R E U l m F m 6 ; G %X>XuX, X     O o         X             ",
"  9 ~ h g g h h g ^ q : ^ ^ g h h X.m.t.M 1 b t.p.o.F 5 < u ).%X@X, 0 q q _ _ ) ) ) / _ ) ) ) ) ' y ",
"  ( ` ^ ^ ^ ^ / ^ ! ! Q p ~ ( / ^ N.t.x x A v.D.g.K F v R 4XXXn.> & q d g a g / ( ^ f Q g h g g / / ",
"% / ! f g f f Q Q f Q ! f a g f 8 ] p.M v b t.v.a.l b N b.XX+Xm.; : q f ! f p g f 8 q a d p d d d d ",
"% ( ! Q Q Q Q Q Q f f p f h f d p a { :.A l o.A Z.B n 6.n.|.y.B & > a f d f ! f a p a f d d d d f d ",
"% ( ^ g Q Q g Q Q f a f a d a d s h s -.A 1 o.Y A v t.D.R E c # * 0 p d d p a d d f d f f d d d d d ",
"& / ^ f g g Q f Q d d a p f s a a p p @.j.o.v.Y c 4 S E 1 4 @ 2 8 q t d d a f a a a p p t d d d f f ",
"& j ^ g h h g h f s s p y p t y r r y +.Y.x.u.T K O.5 B 4 < ; = , q a a a y t y t t r r a s s a ~ s ",
"% / j g f y s d s a p y r r t r r r a @.Y.E.t.T b ....B D D ; % 9 t a p y t t r t t r y s s s s ~ h ",
"O ) ) g d a d d y t r r t t r r r d d h S.E.s.Y c U (.D.A.O.2 O 9 t t r r r r r r t a s d d s s h h ",
"& _ ) d d s d d a d a r t r r p t d d d =.E.p.T b ..&X(.F.%.u O : t a y r p r r t a a s d d a f ^ h ",
"& ) ` p d d d d s s r 8 r p a s d d d d =.E.c.i.H Z C.c.W.P.%.- = r p r 0 r p a f d d d d d a f ^ d ",
"o ) ) p d a d p p r r r r p a a d d d d -./.E.j.H @ | P.c.Q.l.- O , r r r r p a p d d d d d a k ^ d ",
"& g f a d p q r r r r r t t t r a d d d -.A.Q.h.H = | P.s.s.l.; O > r r r r p t t a d d d d g g ^ f ",
"O ) g p p q q t r r r r t y r a d d d a -.j.D.V.| X i (.Q.a.%.- O > 0 r r r r r p f a d d d f g j h ",
"O ^ g a a t t t r r r r q t a a p d d d =.%.Z.A.X.o / ;.P.M.u.G & & q q t q t p d p d d d f f g j a ",
"# ^ h s d d p t r p p t p d f a p a d f =.V.v.h.X.o y @.t.f.g.k.> & 0 q t p d d a p f d f Q ! g h a ",
"= ^ f a s a r t p r t t q p a f s f s f N.(.D.j. .  > ] j.5.R %.# O 8 q t t p d f d d d f g f g h f ",
"% / g a a y t t r p p r a a f a a f f f S.$X(.h.|   : { z.t.9.%.- O 0 q p p d d d d f f f f ) ! ^ d ",
"O ^ h s d 0 0 t q t t t t p d d d f f 0 w y T.h.+.  ,  .Y.x.R $.# O 8 q t t p d s s f g f ^ a f ^ f ",
"= / h s y q t d p t t q q a f d s s & O     e i 2 o 0  .(.Z.T &.# % 9 q t q p d s a f ~ g ^ g d j k ",
"% / h y d d d d p p p p p a a d s f a p w 9 9 r 9 % s r u 7 < | - O 9 t p p a d s s g Q ~ ~ ^ Q j f ",
"* ( h a d p d d d d d d d d p f s Q Q f Q h f h a = p = ; . . e > > q d a d d p f f f ! ! Q Q Q j f ",
"* ' ` f f s d a d d f k g d d j j j g g h h g j k * _ ` p p q w q q p d d g d d ^ g g g g ^ h g j g ",
"O Q _ ( h h s d f h f d t : t j h g d f h f h h r O g _ ) g f d k g k g f t > q j g g d d g f h h w "
};
