/* XPM */
static char *_0b0121ea17e49f0e0e3d66f66604250y7gpKRpfICIFVhFz[] = {
/* columns rows colors chars-per-pixel */
"50 50 220 2 ",
"   c #030405",
".  c #040609",
"X  c #07090A",
"o  c #0A0B0C",
"O  c #0A0300",
"+  c #180E0A",
"@  c #14110E",
"#  c #0E0E11",
"$  c #0E1013",
"%  c #0E1118",
"&  c #121214",
"*  c #191412",
"=  c #13161A",
"-  c #16191C",
";  c #191B1D",
":  c #1C1817",
">  c #271408",
",  c #331401",
"<  c #391807",
"1  c #251C19",
"2  c #371D14",
"3  c #27231D",
"4  c #392819",
"5  c #171E25",
"6  c #191D22",
"7  c #1D2125",
"8  c #1E2429",
"9  c #212426",
"0  c #23262B",
"q  c #24282E",
"w  c #2B2A28",
"e  c #352C25",
"r  c #3A2E23",
"t  c #36332C",
"y  c #3D352B",
"u  c #3C3223",
"i  c #262C31",
"p  c #292E33",
"a  c #2D2F38",
"s  c #2B3136",
"d  c #2D343B",
"f  c #2E383C",
"g  c #333333",
"h  c #3C3A32",
"j  c #31363C",
"k  c #31383E",
"l  c #3C3B3A",
"z  c #3A3631",
"x  c #312F35",
"c  c #481F08",
"v  c #45220A",
"b  c #4A2B15",
"n  c #532A17",
"m  c #4C321D",
"M  c #4F3415",
"N  c #58371D",
"B  c #6F3E0F",
"V  c #613210",
"C  c #402B21",
"Z  c #443323",
"A  c #4B3524",
"S  c #4A3B2C",
"D  c #533925",
"F  c #5C3B22",
"G  c #533A25",
"H  c #433E34",
"J  c #4B3D33",
"K  c #623E23",
"L  c #63401C",
"P  c #5F4027",
"I  c #48453A",
"U  c #534637",
"Y  c #66452C",
"T  c #794E27",
"R  c #76532D",
"E  c #684B36",
"W  c #734F35",
"Q  c #6E533B",
"!  c #6F5939",
"~  c #74553B",
"^  c #7C5B3C",
"/  c #7A573B",
"(  c #75613B",
")  c #2F3740",
"_  c #2F3842",
"`  c #323540",
"'  c #373D46",
"]  c #343B42",
"[  c #393C43",
"{  c #3D4246",
"}  c #3C454B",
"|  c #3A4250",
" . c #404344",
".. c #484949",
"X. c #554E46",
"o. c #4F504E",
"O. c #555143",
"+. c #5A534E",
"@. c #54534B",
"#. c #5D5E5D",
"$. c #545655",
"%. c #4B4E51",
"&. c #6A5744",
"*. c #7A5C42",
"=. c #735C47",
"-. c #7E6143",
";. c #7D6749",
":. c #6A625D",
">. c #6C6857",
",. c #766A59",
"<. c #656049",
"1. c #595F60",
"2. c #5B6060",
"3. c #736C66",
"4. c #766E69",
"5. c #7A7466",
"6. c #92541C",
"7. c #A7561D",
"8. c #B05719",
"9. c #825E39",
"0. c #8D5729",
"q. c #B25C29",
"w. c #936435",
"e. c #A5693B",
"r. c #BA6B33",
"t. c #B9692D",
"y. c #CB783C",
"u. c #C16328",
"i. c #836344",
"p. c #8B6A4D",
"a. c #876849",
"s. c #906E4E",
"d. c #936E45",
"f. c #97704F",
"g. c #886952",
"h. c #916E53",
"j. c #8A765B",
"k. c #9A7356",
"l. c #90755C",
"z. c #957858",
"x. c #8A754C",
"c. c #A26D44",
"v. c #A9774A",
"b. c #BA7B48",
"n. c #A77C5A",
"m. c #867763",
"M. c #957A62",
"N. c #9A7A63",
"B. c #987A68",
"V. c #A17B64",
"C. c #C87E43",
"Z. c #8D815E",
"A. c #A3825C",
"S. c #A18D5E",
"D. c #B5875A",
"F. c #AF834A",
"G. c #8E8360",
"H. c #9D8463",
"J. c #9B8A69",
"K. c #978467",
"L. c #9F916C",
"P. c #968273",
"I. c #9B8976",
"U. c #9E9576",
"Y. c #A6876B",
"T. c #B48A66",
"R. c #AC916A",
"E. c #A5976D",
"W. c #A68A72",
"Q. c #A29374",
"!. c #A59D7E",
"~. c #AC9B7C",
"^. c #AB9477",
"/. c #B29D7A",
"(. c #B69A74",
"). c #B39368",
"_. c #A9A177",
"`. c #CC824A",
"'. c #E2965A",
"]. c #D19B6A",
"[. c #CD9B7F",
"{. c #D3A36E",
"}. c #DCAF7F",
"|. c #E4A269",
" X c #AB9985",
".X c #B39E81",
"XX c #A78D83",
"oX c #ADA384",
"OX c #B3A481",
"+X c #BAA886",
"@X c #BBAC94",
"#X c #B9AD91",
"$X c #B1A9A1",
"%X c #D5A583",
"&X c #C4B288",
"*X c #D1B288",
"=X c #C3B595",
"-X c #C7BB9B",
";X c #CBBE9C",
":X c #CBB895",
">X c #D4BB9A",
",X c #CBAB82",
"<X c #E6B897",
"1X c #CABCA7",
"2X c #D2C49E",
"3X c #D4C5A5",
"4X c #DDC5A5",
"5X c #D3CAAC",
"6X c #DBCBAC",
"7X c #D8C7A9",
"8X c #DFD1AE",
"9X c #DCCAB3",
"0X c #DBCDBC",
"qX c #DED5B7",
"wX c #CDC2AF",
"eX c #E4C9A6",
"rX c #E3D0AE",
"tX c #E1CDB2",
"yX c #E4D2B4",
"uX c #E4D5B7",
/* pixels */
"    .                       .                                   .                 .                 ",
". ' | _ ' ' ` ' _ ' _ ) p ) ' ' _ ) ) ) j j j l x . i ' _ ' ' ` ] _ ' ) ) i ) ] ' _ d ) ) ) f f ] [ ",
"$ ' ` d ) d d ) ) d ) ) d i ) d 7 8 p s p a H W E + ; 5 8 a d ) d ) ) ) ) d i ) ) 7 8 s s s p p i s ",
"$ ' ' ) ) ) ) d ) d d s d ) s s i i d s p z A K 0.G r # 5 i d ) ) ) d s s d ) d i i i d s s s s j s ",
"# ' ] f ) ) f ) f d p s p s s s d s s j z U A A P P 4 X # 7 p d ) ) d a s s s s d d s s s s s s j s ",
"$ ' ] f d ) ) d f s s a p s a p i i g ..Z C Y F F L M u % = 5 0 s j s s s i s a i i p p p s s s s s ",
"# k ) f k ` d d a x x p i i i q i q k J > > V 0.6.L T 4 t 3 % 7 p s x x i i i q i i 0 0 p a a a ` j ",
"o { ] k s i s s a p p q 0 0 0 i 8 q s H A c.C.C.6.t.v.m I ; $ 7 i a p p q q 0 q q 8 0 p p s a a ` j ",
"$ } ] f s i s s i q w 0 q q q 9 w i a g n c.|.C.t.'.F.F & $ ; q s s q 0 w 9 0 0 8 q p s s s s s ` a ",
"& } { s s s g a s p i q 0 0 0 i p s i a x 9.C.7.q.y.v.<.o = q s s s s i q q 0 0 i i s s p p a d ` j ",
"# } { s s a s s s p q 7 8 i p s s s a a :.V.r.C.t.t.e.,.X & 9 s s s s q 7 0 p p f s s s d p p d k j ",
"X f { i a a p i i 0 0 9 0 i p p p s x #. XT.`.y.8.7.F.+XO.& - 9 8 w 0 8 9 0 i p i s p s p d p f ` j ",
"$ k d p p i 0 0 0 0 i 0 0 i i i p d $.m.I.(.].'.u.e.&XL.1X$X#.o - 7 q q 0 q q i q s s s s s f f ] g ",
"o { d p p 8 9 0 0 0 0 0 q 0 8 p s o.@X9X=.(.{.'.q.{.S.J.1X0XwX3 $ = 7 0 0 q q 8 p s s s s a d f ] d ",
"o { f p p i 0 q q 0 0 0 0 i i s s 4.0X9X=.R.}.{.e.}.E.:XyX9X0X$Xt $ 7 8 q 8 8 s s p p s s f f f f p ",
"$ ] f p d s i q 0 i i 0 i p s p $.1X9X6X6X-.F.].}.E.-XyXtX>XrXwX..X - 8 q p s s p q p d s j f f f p ",
"@ ] d p s i 0 0 i 8 8 i q i s s $.1X7X:X9XJ.F.T.4X>XqX9X+X(.2X;XH X = 7 0 q i s s s s s d ` j f ` a ",
"# ' f p s i q 0 i i i 0 p s s k 4.3XeX/.#XyXR D.2X6X-X/.Y.+XE.:X5.; & 7 8 p p d s s d d s j ' ] ] k ",
"# [ f a i 9 7 q 8 0 8 i 0 p p {  X4X+XH./.6X).D.*X3X=X~..XE._.+X!.h # 5 0 i i p s s d d d ] s s '  .",
"@ ] j g i 0 w s p 8 i 0 8 p s { ~.eX/.G.J.2XuXA.n.eXyXuX#Xj.Q.L.!.h X - 8 0 i d a s d ) f ] ) s ]  .",
"% [ a x s s s s p i p q i i s %.=X:X_.Z._.7X8X:XR 4X2X2XQ.>.>.G.!.h o - q i p s a a ) ) ` ] ' ) j  .",
"% ' a a p p p p p p s p s s i #.5X+X5.<.oX5XrX&XH.S.rX#XK.I t Z.U.h # 6 i s s i s _ d f ) ) ) f j { ",
"% | | s d d s s p s d s f s p 1.5X-X@.H oX3X8X=X#X_.Z./.G.I H Z.oX .o 7 p f s s _ ) ) f f k f f k j ",
"o ) ..[ k d g s s j f d i = 0 1.5XOXG.O.oX5XrX/.2XrX).Z.OXU H G.oXl # 7 p i = 0 _ f d s d j d k j 0 ",
". d | ' j s s j d f j s i = 0 1.0X=XH H ^.g.K l./.>XeXR.;.U H G. Xh # 7 p q = 0 ] d d s s k d d k 9 ",
"          X       .     X X . t 5X>XU > 4 v < W -.A.d.%Xa.y @.oX Xl       o X .     . . .     .     ",
"  6 ` ] k d k j f ) 7 = ] ] j ..Y.R.&.4 > < , h.K.h.f.a.^ 4 @.eX:XH # - 7 } } { } { [ { } { } {  .w ",
"  ' | _ ] ] ' ] ' _ _ _ p f ' %.T.V.2 1 2 C c E l.Y.p.F W + J <X%Xy % 8 s s ) ] [ k f f f f d ) ] [ ",
"# ' _ ) f d f ) d _ d _ d p f %.T.n.X.J D n c b Q *.b 9.M A E %Xz.e = 0 d d i ) d 7 8 s s s a i s s ",
"# ' _ d ) ) ) d ) d a s d ) s s H =.H J K n c n C =.v c ~ G C p.e % 5 i s d ) d s i i d s s s s g s ",
"# ' ] f f ) ) f ) d s s p a a a a a a X.XX&., b F *.F W p.Z o 2 @ 5 7 i s i s s d d d s s s s s f s ",
"% ' ] f ) ` ) d ) a s s i s p p p p q o.B.=.A b A *., F W m > * 7 % 7 q i s s s i i i i p p s s f s ",
"# k ] k j k s j s a x i i i q w 0 0 i X.B.V.a.E D a.Y < M > > @ : : 5 q q q q i q q 0 w a a a a a j ",
"# ] f k j i j s a a p q 0 q q q 0 0 i X.V.k.^ ^ D g.R.Y v m 4 1 & 6 0 q i 0 q w q q 0 i a x a a ` j ",
"$ { { s s i s s i q w 0 q q q 0 w p i +.P.N.i./ S y P.Y./ i.U & & 7 0 0 0 0 q 0 0 0 i p a a i x ` j ",
"& } } s s s s s s p i 0 q 0 q q i s a +.P.l.s.i.m o m.W.n.i.Z X : 0 p i q q 0 0 q x x a s p p j j j ",
"# { | i s s s s a a q 6 0 i p a s s s 1.,.K.p.^ U : 5.^.n.i.u X = 0 p q 6 q i p d s p s s s p d ] d ",
"X { { i s p p p i 0 0 0 0 w i a s s s s :.K.l.^ =.: m.J.h.*.=.9 $ 6 0 8 8 0 i p p s s s s s p f k j ",
"# f f i s i 8 0 0 0 q 0 q q 0 i s s p a 3.m.p.-.! X w m.p.i.*.t o = 9 0 0 q q q 8 s d s s s d f k d ",
"o { f i i 8 8 q 0 0 0 0 q 0 0 p s p s p 4.W.H.a.!   9 I.R.n.a.t X = 9 0 0 q q q i d p s s s d f ] j ",
"o [ k i i p 0 q 0 0 8 0 0 i p p p a p s 3.I.l.^ ~ X q Q.V.9.*.t X = 8 8 i 8 i i s p s s d d d f k i ",
"& ] j a s s p q 0 i i 0 i p d i i a s d $.P.N.p.Q . 9 5.Y.k.g.t X - 8 i 8 i s s i i a s d ) f f j s ",
"& k j p s i q q i 0 0 i 8 i p d s d a d :.M.K.h.Q X 7 :.g.N.N.t X - 8 i i 8 i i d s s s d k f f k d ",
"$ [ j p s q q 8 0 i i 0 p p s s a d s s 3.M.a.9.! X % ` B.T.h.t X = 8 8 i s s s s s s f s k ] _ k s ",
"o [ f s p 7 7 w 8 i 8 i i i s s s d f a +.M.k.9.( o & l XXk.-.t X = 8 q i q i s a a s f f ] s s ' d ",
"& [ j a p 0 q p i 8 i 8 8 p s s s s d 0 e A -.i.;.o = ..^.j.;.l o = 8 q q 8 i s a a d ` ` ] ) s k j ",
"$ [ j x s s s s p q i i i p s a s 9 & @     r Z t o 9 x U S u : o - 8 i i i i s a a d ) ) ' ' ) ] s ",
"% ' a p p p p s s d s s s i i _ d q - = = & ; & 6 # s 9 O + X   o - 8 i s s s i s _ d ) ) ) ) d f g ",
"% | | d d s s s s s s d k s s k k f s s d d d d s $ } } 7 8 7 & - 7 w s s f s s k f f f f k k k k d ",
"o j } [ k g s s j j j s i = 0 ] d d s j f s s f 0 o d } ] k p p p s s f s p - 8 k f f d d j s f k 9 "
};
