/* XPM */
static char *_3c76afa02f04e39ad4d859de6fa7791IeQPMDgftjEfT73s[] = {
/* columns rows colors chars-per-pixel */
"50 50 218 2 ",
"   c #030405",
".  c #0B0303",
"X  c #040609",
"o  c #060809",
"O  c #0B0C0D",
"+  c #100E0D",
"@  c #19120E",
"#  c #0E0F11",
"$  c #0E1014",
"%  c #0E1118",
"&  c #131314",
"*  c #1B1916",
"=  c #13161A",
"-  c #161A1D",
";  c #1B1B1C",
":  c #181715",
">  c #2B0400",
",  c #2C180E",
"<  c #361405",
"1  c #251F19",
"2  c #281A16",
"3  c #2C231C",
"4  c #30251D",
"5  c #33291E",
"6  c #3E2313",
"7  c #171F26",
"8  c #1B1E22",
"9  c #1D2126",
"0  c #1E2329",
"q  c #23262C",
"w  c #24282E",
"e  c #282A2C",
"r  c #292524",
"t  c #342A24",
"y  c #3C342B",
"u  c #34302E",
"i  c #262C31",
"p  c #2A2E33",
"a  c #2D2F38",
"s  c #2B3136",
"d  c #2D343B",
"f  c #2E383C",
"g  c #31363C",
"h  c #31383D",
"j  c #383634",
"k  c #44210E",
"l  c #4B2B17",
"z  c #512E17",
"x  c #53311B",
"c  c #4F341B",
"v  c #603D1D",
"b  c #452F21",
"n  c #483628",
"m  c #5B3C24",
"M  c #583521",
"N  c #433C33",
"B  c #603D29",
"V  c #6D4A1D",
"C  c #704A1B",
"Z  c #5A432A",
"A  c #57472D",
"S  c #4D4434",
"D  c #584636",
"F  c #5B543F",
"G  c #654325",
"H  c #6D4428",
"J  c #7B5523",
"K  c #71522C",
"L  c #6A4631",
"P  c #694B34",
"I  c #644B36",
"U  c #764E39",
"Y  c #69543A",
"T  c #675336",
"R  c #76593B",
"E  c #7E5B3C",
"W  c #765638",
"Q  c #7E6039",
"!  c #2F3740",
"~  c #2F3842",
"^  c #323540",
"/  c #343B42",
"(  c #393D43",
")  c #3C4246",
"_  c #3C454C",
"`  c #3A4250",
"'  c #484847",
"]  c #554C45",
"[  c #4E504D",
"{  c #59534A",
"}  c #5A5A58",
"|  c #645243",
" . c #67584B",
".. c #765B47",
"X. c #695D55",
"o. c #6F6146",
"O. c #7D634C",
"+. c #77654A",
"@. c #6E6258",
"#. c #6B635A",
"$. c #776757",
"%. c #7E7357",
"&. c #6A6A61",
"*. c #7B7568",
"=. c #746E64",
"-. c #91561E",
";. c #865621",
":. c #845838",
">. c #9B5D31",
",. c #85663D",
"<. c #96653B",
"1. c #B9693B",
"2. c #A76739",
"3. c #835C45",
"4. c #805744",
"5. c #826243",
"6. c #83634C",
"7. c #84694D",
"8. c #8C6B4D",
"9. c #8B6547",
"0. c #926D4E",
"q. c #966747",
"w. c #96704E",
"e. c #846652",
"r. c #836B54",
"t. c #8D6C53",
"y. c #826D5C",
"u. c #896751",
"i. c #986D55",
"p. c #8D745D",
"a. c #8E7D5A",
"s. c #857458",
"d. c #947456",
"f. c #9B7659",
"g. c #987659",
"h. c #AB7545",
"j. c #A16E51",
"k. c #A17D5D",
"l. c #A87855",
"z. c #B17350",
"x. c #B2734A",
"c. c #897260",
"v. c #8F786A",
"b. c #847669",
"n. c #9B7B63",
"m. c #977C67",
"M. c #8A7F74",
"N. c #A47E63",
"B. c #C47C52",
"V. c #96825E",
"C. c #BC8759",
"Z. c #8E866F",
"A. c #99816C",
"S. c #988868",
"D. c #8B8675",
"F. c #9D8F73",
"G. c #948673",
"H. c #9B926A",
"J. c #A3836C",
"K. c #AB8A6B",
"L. c #A58968",
"P. c #B78A68",
"I. c #A2916C",
"U. c #A48A74",
"Y. c #AA8A72",
"T. c #A28A79",
"R. c #A88B79",
"E. c #B18E76",
"W. c #AE9D79",
"Q. c #A79676",
"!. c #B89875",
"~. c #BF9369",
"^. c #B3A37F",
"/. c #CA8357",
"(. c #D78951",
"). c #E89A58",
"_. c #E48D54",
"`. c #CD9771",
"'. c #CB9769",
"]. c #D4A479",
"[. c #8F8D84",
"{. c #8E9184",
"}. c #979385",
"|. c #918C84",
" X c #A79382",
".X c #B49884",
"XX c #B5A681",
"oX c #BAA985",
"OX c #BAB497",
"+X c #A6AD95",
"@X c #B1ADA4",
"#X c #C2AD8C",
"$X c #C8AB86",
"%X c #C5B38E",
"&X c #D8B68C",
"*X c #C9AF94",
"=X c #C6B593",
"-X c #C9B996",
";X c #CCBD9A",
":X c #C8B796",
">X c #D7BA99",
",X c #CDBFA2",
"<X c #D3BBA0",
"1X c #C6B9B1",
"2X c #D3C79C",
"3X c #CFC2A2",
"4X c #D2C4A2",
"5X c #D7C8A6",
"6X c #D6CAAD",
"7X c #DACAAB",
"8X c #DAC5A9",
"9X c #D4C7B0",
"0X c #DCCCB3",
"qX c #D8CCB8",
"wX c #D9D2B6",
"eX c #E3D0B1",
"rX c #E3D5BB",
"tX c #E3C9AF",
/* pixels */
"    X X   X                 X X                                 X                 X                 ",
"X ( ` ~ / ^ / / / ~ ~ ! i ! / / ~ ! ! ! f g g / ( X _ ` ~ ) / / / ~ / ~ ! i ~ / ( ~ ! ! ! ! f d / ( ",
"# ( ~ ~ ! d ! ! ! ! d ! d i ! d 9 0 p s s 9 ; r t 3 N S [ ! d ! ! ! ! ! ! d i ! ! 9 0 s p s p p p s ",
"# ( / ~ ! d ! ! ! d d a d ! d s w i d s 9 o @ b L P W ,.o.! ! ! d ! d d s d ! d i i i s s s d s d s ",
"$ ( / f ! ! ! d f d p d p s s d d d s s %   1 b m v K V A [ ~ ~ ! f d i d p p d d s d a s s s s s g ",
"$ / / d ! d f ! f a a p p s p p i i i 8 o : b D P G C ;.K S ! ! g g a a p p s p s i i i i i p d d s ",
"$ h / d g ^ d d g a p p i i w e w 0 7 X ; u 1 2 , < C ;.,.O. .) g p a p i i e i w w w w i a p p g g ",
"O ) ~ f d i s a p p p e q q q w w w -   - ; . . ..q.;.-.<.] j g g a p i e e q q w w w i d a d a ^ a ",
"# ) ) f a p s s e e e q e q w q e i s e : o o < x.(.).).C.*.p p s p e q q e w w w w i s s s s s ^ g ",
"& ) ) s s s s s s s w e w w w w e s s s & o t K 2.1._.(.i.j s a s p p p q q q q w s s p s s i f ^ g ",
"o ) _ i a a a s p p w 9 q w p d s s w ; : N s.q.>.1.1.1.:.a p g d s p w 9 q w p s s s s s s i d h a ",
"o ) ) i s p p i i q q q w i i s s - O =.F.$.Q.P.x.>.2.l.c.p a i e i w 0 q q i p s s s s s s s f / g ",
"% ~ f i s w 0 q q q q w w w w 0 - O &.7XrXF.a.>X'.h.<.A.[ s q q w q w q w w w w 0 s s s s s d f ^ g ",
"o ) f p p 0 q q q q q w w q q 8   [ qX7X7XwXOXoX].C.h.'.y.p q q w 0 q q 0 w w w s s s s s p d f h g ",
"O / f p p i w w w q w w q w i O O @X0X7X7X6XwXOXQ C./.].R.' w q i w i 0 i 0 w i s i p s d d f f h p ",
"$ ) d p d s i w w w w w i p w   j 6X7X#XoX5XwX7XS.;./.B.&XS.} i 0 i w w i i p s s i s s d g g f g s ",
"& / g p s e w w w w w w q q o * 1X0X7XW.I.3X5XeXoXv x.B.].H.{.q w w 0 w w 0 w s s s d s d d g f ^ s ",
"O / f p p w w w w w w w s i   ; qX0X;X^.Q.%X%X;X=XL.B q.L.H.|.q w w i w i p s s s s s d d g / / / g ",
"# ( g s p 9 9 w 0 w i w 0 i   & qX7XXXS.W.=X-X2X4X7XL.G g.T.|.9 w w 0 w 0 i i s i a d ! d / s s / d ",
"# ( g p p w e s i w 0 i 0 # o #.9X7X^.a.W.-X-X-X4XqX3XT %XA.b.w s i w w i 0 i f s a d ! ! / ! s h a ",
"& ( ^ a s s s s i w i i i     G.6X7XXXV.Q.-XoX%X:X0XwX%.O.#XG.#.d i e w i i i s d a ! ! ! / ^ / h a ",
"# ( a a s s s i s s s s s     Z.6X7X^.V.V.W.-X-X<XtX6Xs.Y >XI.+Xj s s s s d s i s ~ d f ! ! ! f g d ",
"= ` _ s s s s p p s s f f o   D.;X4XXXF N S.=X#X*XtX9X;XY OXF.}.s s s s s f s s ~ ~ f f f / f f / d ",
"O f ` ( h j s f s f f s e o   *.=X2XXXS y %.r.c E.tXeX4Xs.F Q.D.a d g g s i = q ~ d d s d g d d h r ",
"  d ` ( g s d d d d g s i =   * 2X%X#XO.A n M k W !.^.I.8.A I.D.d d g d s i = q / d d s d f d d h q ",
"    X X X X       X     o X   ; 7X$X>Xy., k M l k G l R v m K.%.          O X X     X X X     X     ",
"  8 ! ~ h d g g f / 9 = / d $ & }.`.!.$.D z < < U 5.E U x G V.+._ ) ) i q _ _ ) ) ) ( ) ) ) ) ) ) e ",
"X ( ( / ( / / / / ~ ! ~ i / g   @ V.`.E.J.m k < L f.8.d.k.0.9.y./ ~ ~ ! d p f ( ( / f ! f f ! d h ) ",
"% ( ~ d f d d ! ! ! d ~ d i p   2 l.'.`.j.0.M > l ..6.6.n.N.3.| ! d ! ~ ~ d w ~ d 9 0 s s s p s s u ",
"# ( ~ ! ! ! ! ! d ! d s d ~ s $ & 7.P./.j.i.4.U m l e.n.Y.J.B 2 f ! ! s s d ! ~ s w i d s s s s s s ",
"# / / d ! ! d ! f d p d p s s s p = ; ] 0.d.U..XI m t.K.E...4 $.~ ! ! s s i s s s d d s s s s s d s ",
"% ( / f f f ! d f p d p i d p p p 8 . 4 0.g.m.R.L ..t.i.Y...4 N ~ ! i d s i s s i s i w p s s s f s ",
"$ / ~ f g h d g p a p a e i i e w -   5 8.S.N. XB 4.5.0.n.O.n r ^ s d p i i i e i q e q a p a a ^ a ",
"# / h f d i s g p p p e q q q q 9 o * T 5.f.E...M ..8.J.U...t p a a p i e q q e q q e e p a a a ^ a ",
"# ) ) f s p s s p i q q q e q q -   3 O.d.J.R.P z W d.Y.A.X.p a s p i q q e w w q q p p s s a a ^ g ",
"$ _ ) s s s s s p s e e q q q i 9   3 5.L.J.R.Y c R 6.U.b.j a p p a p i w w q q i p a p s p p g g g ",
"# ) ` i s s s s a a w 8 q i a q X * O.k.K.m.G.A I r.d.J.=.a a a a a p w 9 q i i d s s s s s p s / g ",
"o ) ) i s i i s i q q q q i i q   * y.K.i.m. .@ S t.J.U.@.p p i p e q q 0 q i p s p p s s s s f g g ",
"$ f s s s i 0 w q q q q w w q 8   * y.i.q.U.{ + D 6.J.M.$.s w 0 e e q q q w w w w s s s s s f f f d ",
"O ) f i i 0 0 w q q q q w w q q   * e.3.N.T.u    .i.U.c.X.a q q q q q q q w w q s s s s s s d f / g ",
"O ( g p s e q w q q i q q i i = o N 7.f.N.v.j   | n.n.y.@.p i w i i i 0 0 i i i s w s s d s ! d g p ",
"& / g p s s s w q i 0 i i i w   - %.d.0.O.#.e   | u.u.v.@.g p i 0 0 w i i i i s i i s s d ! f f f s ",
"# ( f p s p w w w w i q w i w   : +.E E e.' %    .t.n.G.b.p p q i w i 0 i 0 i i d s d d d h ! f g d ",
"+ / d p p w q q w w q i i s w   : o.R 9.c.X.$   | t.Y. XM.p q q w w i 0 i i s d p s s d d f / ~ h d ",
"# ( f p p 9 9 q 0 i w w w i 0   : +.,.d.F.&.#    .c.T.N y s r 8 w 0 w w w w i s a a d f d / p s ( d ",
"& / h p i q e s i w 0 w 0 s e   : ..6.m.}.|.#   ; j r     O : q s w w w i 0 i s a p d ^ g / ~ s h g ",
"& ( g a s s s s i e i i w s w   & { @ 5 t p a i 9 # q 9 ; 9 e s s w w s i w i s a a f ! ^ / / ~ h s ",
"% ( a p p p s s s s s s s s 0 X O r . . @ & q g a % ( ^ p p s s s s s s s s s i d d d ! ! ~ ~ d f d ",
"% ` ` d d s s s p s s s h s p d s p w i f f d h d % _ _ f d s s s s s s s f s s h h f d f / h f / d ",
"O g _ ( h a p g g h g a w - q ( d d s f f s f h r O d _ / h d s s s g f s s & w / d f s s h s h f r "
};
