/* XPM */
static char *_2b083ebbc5842c18b50faa8d1ac8d341GAeF42dfLkrmw3j[] = {
/* columns rows colors chars-per-pixel */
"50 50 224 2 ",
"   c #030405",
".  c #0B0301",
"X  c #050609",
"o  c #06090A",
"O  c #0B0C0E",
"+  c #0F0804",
"@  c #110D0C",
"#  c #140E05",
"$  c #13100C",
"%  c #0E0E11",
"&  c #0E1113",
"*  c #0E1118",
"=  c #111214",
"-  c #1B1613",
";  c #13161A",
":  c #161A1C",
">  c #1B1C1D",
",  c #1C1813",
"<  c #241D17",
"1  c #3D1F10",
"2  c #24150E",
"3  c #24211C",
"4  c #2F261D",
"5  c #35231B",
"6  c #3A2C1E",
"7  c #352914",
"8  c #171F26",
"9  c #1B1E22",
"0  c #1D2125",
"q  c #1E2429",
"w  c #222425",
"e  c #292522",
"r  c #23272C",
"t  c #24282E",
"y  c #2C2B2E",
"u  c #2A2A23",
"i  c #342E26",
"p  c #362D29",
"a  c #3B3124",
"s  c #3F382A",
"d  c #262C31",
"f  c #292E33",
"g  c #2C2F38",
"h  c #2B3136",
"j  c #2D343B",
"k  c #2E383C",
"l  c #313435",
"z  c #31363C",
"x  c #31383E",
"c  c #3B3936",
"v  c #481F04",
"b  c #45361B",
"n  c #563A1C",
"m  c #54361A",
"M  c #603C19",
"N  c #402F2A",
"B  c #463625",
"V  c #5A3E24",
"C  c #573B27",
"Z  c #493B34",
"A  c #573B35",
"S  c #724417",
"D  c #56422C",
"F  c #5C472A",
"G  c #494237",
"H  c #51443A",
"J  c #5D4C3C",
"K  c #594736",
"L  c #6D4C2A",
"P  c #624720",
"I  c #77562E",
"U  c #644C34",
"Y  c #614F39",
"T  c #635234",
"R  c #6B5335",
"E  c #61523C",
"W  c #6E5839",
"Q  c #755B36",
"!  c #7D5B35",
"~  c #755538",
"^  c #745D3D",
"/  c #7B5C3C",
"(  c #724E2B",
")  c #7D623E",
"_  c #72613A",
"`  c #2F3740",
"'  c #2F3842",
"]  c #323540",
"[  c #323A42",
"{  c #343B44",
"}  c #373D46",
"|  c #343B42",
" . c #393D43",
".. c #3C4246",
"X. c #3C444B",
"o. c #3A4250",
"O. c #424445",
"+. c #434648",
"@. c #494C4C",
"#. c #444A4E",
"$. c #574C43",
"%. c #5B5448",
"&. c #4F5251",
"*. c #535556",
"=. c #4A4D51",
"-. c #645544",
";. c #675846",
":. c #7B5D40",
">. c #735948",
",. c #615C54",
"<. c #6C5E56",
"1. c #6B4D42",
"2. c #5E615F",
"3. c #6D6748",
"4. c #7C6342",
"5. c #766449",
"6. c #7A644C",
"7. c #7F6E4E",
"8. c #746042",
"9. c #6B665C",
"0. c #68645C",
"q. c #7E6D5A",
"w. c #7A6657",
"e. c #7B705A",
"r. c #696662",
"t. c #7A7467",
"y. c #757572",
"u. c #87571D",
"i. c #855A2B",
"p. c #845929",
"a. c #825E3B",
"s. c #805732",
"d. c #82633E",
"f. c #846538",
"g. c #9B6631",
"h. c #815D41",
"j. c #835E54",
"k. c #826244",
"l. c #85634B",
"z. c #81694B",
"x. c #8C6B4E",
"c. c #8B6845",
"v. c #926C46",
"b. c #8D704F",
"n. c #8D7E4E",
"m. c #987449",
"M. c #8B6E52",
"N. c #896959",
"B. c #916B58",
"V. c #8B7D5A",
"C. c #877656",
"Z. c #937456",
"A. c #94765B",
"S. c #957C5E",
"D. c #9A7B5D",
"F. c #9E7557",
"G. c #A37D5D",
"H. c #837665",
"J. c #897865",
"K. c #957D63",
"L. c #9B7A64",
"P. c #986E68",
"I. c #A17A6C",
"U. c #9A8A5C",
"Y. c #A4815E",
"T. c #9B8362",
"R. c #9B8469",
"E. c #958567",
"W. c #898677",
"Q. c #9B8979",
"!. c #918967",
"~. c #A4866B",
"^. c #A3936C",
"/. c #A39669",
"(. c #AB8B74",
"). c #B38F73",
"_. c #A49672",
"`. c #A79C7C",
"'. c #AB9976",
"]. c #B19D78",
"[. c #B8906A",
"{. c #ACA37E",
"}. c #B5A579",
"|. c #A39F8E",
" X c #AEA186",
".X c #BCAB84",
"XX c #BBAA8D",
"oX c #B6A584",
"OX c #BEB38F",
"+X c #AEA893",
"@X c #B4AD91",
"#X c #BAAB93",
"$X c #BDB593",
"%X c #BDB79F",
"&X c #958C8D",
"*X c #CDB48F",
"=X c #C7AF91",
"-X c #C4B393",
";X c #C9B693",
":X c #CABB96",
">X c #C8B99A",
",X c #D3BC9B",
"<X c #C6BCA4",
"1X c #CCBCA3",
"2X c #C8B6A2",
"3X c #D4BCA5",
"4X c #D1C19E",
"5X c #CFC3A5",
"6X c #CFC2A8",
"7X c #D3C3A3",
"8X c #DAC6AC",
"9X c #D4C9AD",
"0X c #DCCBAC",
"qX c #D7C6A7",
"wX c #DDD0AF",
"eX c #DCCCB2",
"rX c #D6CCBA",
"tX c #D5C9B6",
"yX c #DED2B6",
"uX c #CAC4B8",
"iX c #E4C7A5",
"pX c #E0CCB3",
"aX c #E2D3B4",
"sX c #ECDCBF",
/* pixels */
"                                                    X                 X                             ",
"X } o.' { { { { { { ` ` d ` } } ' ` ` ` k k j  .x X d j g ` ` { { ' { ` ` d ` { } { j ` k ` k z |  .",
"% } { ` ` j ` j j ` ` ` ` d ` j 8 q g g h h f H K D B 9 8 q g k j ` ` ` ` ` d ` j 0 q g h h f h f h ",
"% } { ` ` ` ` ` k ` g j j k j f d d j h h h N F Q P b i X : d ` ` j ` j f j ` j d d d j h h h h l h ",
"% } [ k j ` ` j ` j f h f h h h j h h h h l K Q Q _ B a O & 0 h g j j g h f h h j j h h h h h h z h ",
"&  .[ k ` k k ` z l g f f h f f d d d l c E P ( C B 6 7 i O : 9 d l h h h f h h h d d d f h h h j h ",
"% | ` k z ] j j g g f f d d y t d q d c E d.i.S n P b 7 a e > ; r f g f f f t t t d q t f f g g ] l ",
"$ | [ [ h d h g f f f t t t t t q d d h c U i.i.! >.8.F a , O : t f f f t r t r t q d d g g g g ] ] ",
"& X.| l h f h h f y r r t t t r t t h h f H R m b a a D $.X = w f f t r r t t r r t d h h h g h ] z ",
"= X.X.h h f h h g f f t t r r t f h h h f O.<.7 .   # A s % 9 d h h h y t t r t t d h h h h d k ] j ",
"o ....h l g h h h f r 0 r d d j h h h h h f 0.N.-.9.J.&XX = 9 f h h h t 0 r t f k h h h h h d j } l ",
"o ....d f f f d f t w w r d f d h h h h h r.+X#X#X<XsX2X< % : 9 r t r r w r y f f h h h h h f k ] g ",
"& ' k d f d r r r r r t t t t t d h h &.+X%X9X0X7X0X-X6.`.W.W.; ; 0 q r r r t t t h h h h h k k ] k ",
"O ..k f f q w r r r r r t t d d h h +.%XwXwXqX0X7X0XoXP 8X9XrXy.O ; 0 w r t t t f h h h h h k k [ l ",
"O ..j f f d t t t t r t q t d h f *.uX7X;X;X7X0X X>XT ].3X0X0X9X9.O : q t q d d f d h h h z k k ` f ",
"& [ j f j h d t t t t t d g h f +.uXyX4X.X7XeXeXpXXXR 7XpXeXwX7X0.X ; q d d f j d d h h h z z k k f ",
"= | z y g d t t d q q t d d h h =.rXyX=X^.7X0X0X1XT -X0X0XpX0X7Xt.& & 0 q q d h h j f j j ] z k ] l ",
"@ | ] f f t t t d d d d d h h h =.rXeXXX^.qXeX5XXX5.>X/.9XqX;X4X5X9.% : q f h h h j g j h z } [ ] g ",
"%  .z f f 0 9 t q t d q r d h h ..tX=XV._.4X0X X5.>XyXR.qX7X}./.>X*.o ; q t d h f g j j j | h h } j ",
"= | z g f t d f d r r d r d h z y.eXoXU.].7XsX^ XX8X$X'.7XpX]./.$X%.o ; q t f h j g j k k { ` h { l ",
"=  .z g f h l h d t d d d f f X.rX8X}.^.:XqXoXC.=X+X_.$X9X-X}.^.>X%.% ; q d f g h g j ` ` { { ` ` l ",
"% } g f h h f h f h h h h h d ..1X7X{.^.5XwXT {.1XqXaX3X<XR.}./.5X2.O 9 d h h d g ` k ` ` ` ` j k h ",
"* X.#.g h h h f h h h j k h h #.<X$X}._.9X{.C.`.:XaX,X8XqX^.}.U..X$.o 9 f k h f ' k k k ` x z k ] l ",
"% k o.} x l h h k z l h d ; r #.uX$X{.^.yX7.n.-X].;X*XiX*X~.}.U.{.2.o 9 f t : t ' k j f k k k k x r ",
"  j o.| x h l j h z z h d ; r | 2.%X{.'._.S.=X8X_.,X,XiX3XQ.,.!.@Xr.O 0 t t : q } k k f k l k k x r ",
"          X   X   X     O X   X > @XU.3.a R U.S.M.~ R 5.Q.Z : V.@Xr.X X X O X           X     X     ",
"  9 ] ` x l z z k [ 0 ; | | z z @.*X].L C T.D.S.N.~ U ;.Z 4 3 !.OX9.% ; 0 X.X... ... .X...........y ",
"X { o.{ } [ [ } } ' ' ` d ` } } G U.u.L K.).D.B.x.D.x._ >.5 < f.f.B O 0 d d ' ..} { j ` k ` k j  .x ",
"% } ' ` ` j ` j ` ` k ' j d k k y Y.u.u.F.(.B.c.v.I.A.k.j.A 5 m.! 4 & 0 j j d k j 8 q g h h f g h l ",
"% } ' k ` ` ` ` k ` j d j k j h d ,.g.p.G.P.B.j./ l.L.b.j.K 3 W e.q 0 r d j k j h d d j h h h h h h ",
"% } [ k k ` ` j k j f j d j h h j y v ! ).I.N./ n n 4.4.q.H X : q f d d j d f j j j k g h h h h k h ",
"& } [ k ` ` ` j k d j g d g f f f p 1 V (.L.l.V m ) k.4.6.K X ; d k j g g d j f d d d t f h h h h h ",
"% | x k z x h z g g f f t f t t t y 5 N I.l.l.F C Q k.F.M.K X ; d h g g d y t d d r r t f y g g ] g ",
"= | x x h d l j g f f y r r r t t w 2 >.~.a.Q V $ U h.[.v.U X ; t f f f y r t r r r t f g g g g ] z ",
"& ....j h f h h f d r r t r y r t t G 1.D.f.I F - Y h.F.d.K X ; r f y r r t t t r d y f l g g g ] h ",
"& X...h f l h h f f f r t r r t d h &.i b.f.P U - K L.N.) F X = r f f f r t r t y d d g f h f l { z ",
"% ..o.d h h j h g f t 8 r y d h h h h Z z.! ( W - -.A.R.A.J o ; r l f t 9 t d d h h h h h h f k [ h ",
"o ....d h f h t f t r q r y f f h h h O.:.I L >.< -.K.A.M.J X = 0 f t w w t d d f h f h h h h k { l ",
"& k j d h t q t r r r r t t t d f h O.H.A.a.~ a = q.~.x.:.J X % 9 r t r r t t t d d h h h h k k [ l ",
"O ..k d f q q t t r t r t t r d h f ..J.D.k./ , O J.(.x.:.J X = 9 t r r r t t t d j h h h f k j [ h ",
"O  .] f f y r t t r r t q d d f d g +.K.G.a.6.e O H.T.x./ E X = 0 t t q d q q d h d g g j j j k [ f ",
"= | k f h h d t t t r d d h h d d j #.E.c./ 6.e % H.M.d.4.;.X = 0 t d d t d h h f d g g j k k k z f ",
"= x k f h f t t t t t t t d h j h j &.K.a.^ q.w & H.z.) d.-.X & 0 t q d t q d h h h j g k x k k z k ",
"=  .z f f t t r t t t r d h h h h h &.K.k.^ i O r 5.b.a.:.-.X & 0 t d d q h f j h j h j h x [ ' x k ",
"O  .h f h 0 0 r q d q d d d h h g j &.R.4.3.u % <.N.Y.c.5.G o & q r t t q d d f h g h k h | h j | l ",
"=  .z g y r t h d q d q q d h g g j *.W.7.3.u % r.Q.Z.h.w.X % 8 t t t t d q d j g g j ] ] | k h [ l ",
"=  .z g h h h h f t d d d f h g g j ..$.G B < 9 &X-.K A Z O $ > t t t f d d f f g j ` ` ] { } ` z h ",
"*  .z y f f h h h h h h f g d j j j h @ . # o = O.- +   . > & 0 9 q d f h f g d j j j ` ` ` ` j z j ",
"* } o.k h h h h g h h h z h f [ ` k h 9 w u q q t > l : $ % = 0 0 q f h k k h h x k ' k k x x k [ k ",
"% ] X.} x h j l l z k h t 9 r | h k h l h h f h q O j ..l h d d y h l k j t ; r [ l k h j z k l z w "
};
