/* XPM */
static char *_f182dbf1f454d21c2410477ab8a2fc1rMCS1WVUEHcsfRUt[] = {
/* columns rows colors chars-per-pixel */
"50 50 146 2 ",
"   c #2B2F3F",
".  c #272D41",
"X  c #2A2E43",
"o  c #2E3346",
"O  c #2F3549",
"+  c #313647",
"@  c #313847",
"#  c #31364A",
"$  c #34394B",
"%  c #383E4E",
"&  c #363C50",
"*  c #393E51",
"=  c #39404E",
"-  c #3C4253",
";  c #3F4658",
":  c #424656",
">  c #424957",
",  c #414758",
"<  c #454C5D",
"1  c #494E5F",
"2  c #47505F",
"3  c #49505F",
"4  c #50555F",
"5  c #464E60",
"6  c #494E60",
"7  c #475060",
"8  c #4D5260",
"9  c #4E5260",
"0  c #4D5262",
"q  c #4D5263",
"w  c #4E5262",
"e  c #4D5160",
"r  c #4E5460",
"t  c #4D5462",
"y  c #4D5463",
"u  c #4E5463",
"i  c #4E5563",
"p  c #4A5165",
"a  c #4A5265",
"s  c #4B5265",
"d  c #4B5465",
"f  c #4B5466",
"g  c #4E5465",
"h  c #4E5565",
"j  c #4D5567",
"k  c #4E5466",
"l  c #4E5567",
"z  c #4E5767",
"x  c #4C5364",
"c  c #4D5569",
"v  c #4E5769",
"b  c #4E5669",
"n  c #4E5869",
"m  c #505460",
"M  c #505560",
"N  c #515560",
"B  c #515760",
"V  c #505562",
"C  c #515562",
"Z  c #505563",
"A  c #515762",
"S  c #515763",
"D  c #505565",
"F  c #505765",
"G  c #505566",
"H  c #505567",
"J  c #505766",
"K  c #515766",
"L  c #505767",
"P  c #505666",
"I  c #515860",
"U  c #525865",
"Y  c #515866",
"T  c #515867",
"R  c #525866",
"E  c #525966",
"W  c #525867",
"Q  c #525967",
"!  c #545866",
"~  c #545867",
"^  c #545967",
"/  c #555B67",
"(  c #515867",
")  c #505569",
"_  c #505769",
"`  c #515769",
"'  c #52576A",
"]  c #515769",
"[  c #505869",
"{  c #515869",
"}  c #525869",
"|  c #525969",
" . c #51586A",
".. c #51596A",
"X. c #52586A",
"o. c #52596A",
"O. c #545869",
"+. c #545969",
"@. c #555969",
"#. c #545B69",
"$. c #555B69",
"%. c #54596A",
"&. c #55596A",
"*. c #545B6A",
"=. c #555B6A",
"-. c #575C69",
";. c #575C6A",
":. c #54596C",
">. c #555B6C",
",. c #575B6C",
"<. c #555C6C",
"1. c #575C6C",
"2. c #575C6D",
"3. c #575E6C",
"4. c #575E6D",
"5. c #53596A",
"6. c #585C6A",
"7. c #585C6C",
"8. c #595C6C",
"9. c #585E6C",
"0. c #585E6D",
"q. c #585F6D",
"w. c #595F6D",
"e. c #585E6C",
"r. c #59606E",
"t. c #5B606E",
"y. c #5B626E",
"u. c #5C606E",
"i. c #5C626E",
"p. c #5A606E",
"a. c #5B6070",
"s. c #5C6070",
"d. c #5C6270",
"f. c #5C6370",
"g. c #5C6271",
"h. c #5C6371",
"j. c #5E6270",
"k. c #5E6370",
"l. c #5E6271",
"z. c #5E6371",
"x. c #5F6371",
"c. c #5E6571",
"v. c #5F6571",
"b. c #5F6573",
"n. c #5D6371",
"m. c #606673",
/* pixels */
"$ k.i.k.a.a.n.a.x i.i.n.n.k.n.^ o Y x.x.^ C 4 C 4 U C 3 A $ + 4 C i 4 C U 4 C C 3 C 3   > C C C i 4 ",
"$ | | ' ' ' | h < @.@.| ' | ' x @ < ' K | | 3.| 3./ | | @.- $ K ' | @.@.| | | | @.@.3 # < >.| ' | | ",
"$ Y | ' ' | | x h v | Y Y | | 8 + - K | | | | ' Y | ' | @.- # @.| | ' | | | | ' | K : # < | | | | | ",
"$ K | | | | x h h x ' | | | @.a + : Y | | | | ' | | Y | h $ o 3 | | | | Y Y | | ' O.< o < :.' | | | ",
"$ v ' | v a < h v 5 5 v h v | 6 + 3 | n z h f f f n d < x - @ a 5 a v q v a h h ' | h # < v v ' n a ",
"o < < < < - ; < < < - 5 5 < 5 , o ; < < < < < < < < < ; < $ # 5 - , < < < < < < < < < o - < < < < - ",
"# $ $ $ $ $ & - @ o $ # @ $ $ + o # # $ $ @ o # & * - $ - $ $ * & * * * # o $ - $ $ $ $ $ * - % $ * ",
"@.i.y.n.i.y.y.n.> $ @.h 8 | ^ 3 3 ^ U U Y h o 5 k.y.a.a.k.k.k.k.k.a.a.k.h o Y n.a.h.n.1.O.k.k.@.9.n.",
"K 3.3.3.@.*.| >.; $ x x x < x i i i 8 3 3 < o < >.| | ' | @.3.Y | | | @.8 O i @.*.1.1.1.1.| | | | >.",
"x ' K ' ' | | | - $ 3 3 3 3 3 1 1 2 x 1 1 < o < | | | ' ' z h | | | ' | 1 O 6 ' | | | ' | | ' | ' | ",
"x ' | | ' ' | >.: $ 3 6 x 3 2 x 1 3 x 1 3 1 X < >.' | | | K Y | Y | | @.x o 6 >.| | | | | | | | ' >.",
"1 v h K v | | | ; $ 5 < < < < 5 < < 1 < 1 < o > | ' v ' ' v h v K v ' ' 1 o x ' | v ' h v h h K ' | ",
"< 6 x 6 a a q q - # , < ; ; ; ; < ; ; - - ; o < x x x x 6 x 5 a a a a x < O < 5 5 a a a 6 x x a x a ",
"o O # # + # # # o o o + o o o o o o @ o o o X o O @ # @ @ # o # @ @ # # + X # # o $ # o # + o o # # ",
"o 3 8 3 3 3 3 3 3 i 3 8 3 o < 1.! : h 3.3.| | ' | @.@.3.3.$ # | 3.@.@.^ ! Y ^ @.3.K : i 6.x o < 3 8 ",
"@ C i K Y Y ^ K C i 8 8 i @ 3 r.7.< ' 3.1.y.k.k.a.9.9.1.9.- $ 6.1.1.1.y.a.k.y.9.@.3.< | 6.! + < i 8 ",
"+ 3 3 3 < 3 3 < 3 3 1 3 < o < | ' < K ' | ' ' K | ' ' | ' - @ | K K ' ' z ' ' ' K @.< h | x # < x 3 ",
"o < x 3 3 1 x x 3 3 3 3 1 # < v < < Y ' ' | Y | Y ' | | h $ O h | | | | | | ' | | | < < K 8 # < 1 3 ",
"o - > < < 6 < < < 5 < 1 1 # * < i v i K v h v Y Y K | | | & # K ' ' K ' K v v v K v h K < - o < 1 3 ",
"+ < - ; < < < < < < < < < o ; v ' q v h a h a h h v v q h * $ q v h v v h d a a a q v v ' < + , < < ",
"  o o o o o o + o o o O o . @ $ @ $ $ @ $ $ # $ @ $ & $ $ o . $ $ & $ $ & $ $ # $ $ $ & $ $ X o o o ",
"$ - - - * - % . @ - * * - $ @ - * * $ - # X * - * - & $ $ - - * - * * * $ X $ - * * % $ $ * - * $ - ",
"r.n.a.n.k.m.^ o h b.k.n.n.y.@.n.n.i.9.b.< $ g.k.n.b.b.b.n.b.b.n.k.k.k.b.| O Y n.k.n.n.a.9.m.n.9.y.b.",
"y | ' | ' ' 8 o < >.| | *.1.1.| | | ' @.: $ ' ' ' :.*.1.1.:.| | ' | ' @.8 o x | | ' >.1.>.| | | | | ",
"x v | | | | x o < ' | ' ' Y K ' | ' ' ' - $ K | v ' Y | Y Y Y | ' ' ' | x o x ' | | K ' K K ' | | | ",
"x ' | | ' @.1 o 5 :.' | | Y K ' ' ' | :., $ | | ' | | | Y | ' | | ' Y | 8 o 6 @.| | Y | | ' | | | | ",
"< d h n ' | 6 o 5 ' | n v v h f v h ' | - & K ' ' | z z v f d h v v ' | 6 o x v ' h v q h v h ' | :.",
"< < < < 5 < ; o - < ; 5 5 < < 5 5 < 5 5 * # 6 < < < < 5 < 5 5 < < 5 < < , o , < < 5 < 5 5 < < x 5 x ",
"o # # # O O O O # # o @ # o # @ # @ # # # o # $ $ $ $ @ # o o O # # # O # o # # o # # o # $ $ $ # $ ",
"$ 9.y.1.1.9.9.9.y.r.1.r.6.$ < 9.9.9.9.9.y.3 K 9.9.9.1.1.9.- # 3.3.r.1.y.1.1.y.r.3.6.@.+ 3 i.6.i.w.3.",
"$ 1.| 1.1.9.y.>.@.@.3.@.@.$ < 3.@.>.1.y.a.| v 1.>.@.@.@.@.- $ @.*.*.1.y.y.1.*.*.1.1.K # 8 1.@.3.9.i.",
"$ | | | | K | Y | Y ' K < # < | | v | Y | a 6 | | | K | Y * $ | Y | Y Y z | Y | | K < @ 1 @.Y Y K | ",
"@ Y | | | ' | ' | ' | Y ; # < @.' | ' | q ' v q >.' | ' | - # h @.:.| | ' ' ' | | @.< # < 3.^ | | ' ",
"$ i 1 x n h h h h K ' | Y @ < ' | | v q 5 h h < h v h ' ' * # 1 < q ' ' v h h K Y @.Y @ < @.| | Y a ",
"$ v < < a x x x a a a a a $ , a h d d < a d a 2 < x a d a * $ v < < d a h h q 6 h d h $ < d h a h < ",
"X @ o # # # O O # # # # # o o # # # o + o # # # o # # # # o o # O # @ $ $ $ # + # # # o $ @ # # # o ",
"3 i 8 8 8 h <   % < > : : - = < < : = < @ # 3 x x 1 3 1 < 3 K C C i i C < o : < > > : - - > 1 > % < ",
"| 9.3.3.1.1.h   < K K K K Y K C C i i Y - $ y.1.1.9.a.a.n.k.9.9.9.9.3.y.K + 3 K C U U Y Y Y C 3 i h ",
"8 | | ' | :.x o - 3 1 1 < 3 3 1 1 1 1 1 $ $ h | Y Y | ' | Y Y Y | | *.@.3 # < 3 1 < < x 3 1 3 1 3 x ",
"8 | ' | | | 1 o - 2 3 3 3 3 3 3 3 3 3 x % $ | | | | | ' | ' | Y @.3.Y 3.8 $ > 8 3 3 3 3 3 3 3 3 1 3 ",
"6 v ' ' | | 1 o - x 6 < 6 5 5 < 5 < 5 5 $ $ K | | | ' ' | h K | | | | @.8 + < 8 3 < a 5 < 5 < 5 5 x ",
"x v d h h | < o - < < < < < 5 < < 5 5 5 - $ d v v d v v d h v h | | h K x # < 6 < 5 ; < < 5 ; 5 < 5 ",
"$ * * * * - % X O O o @ $ @ O $ # $ $ @ o o * - - & * * - & * - - - ; - * o $ # o @ $ $ $ $ & $ $ @ ",
"o : : : ; - = ; ; > > < - - < -   - < < < > : - - ; - : < @ o : : , : : : : : , < < - * < - o - , < ",
"$ i.9.y.a.a.n.i.n.h.y.1.6 | k.| o U y.9.a.a.k.i.i.k.k.9.k.; $ a.a.y.a.k.k.k.k.k.i.9.< 1.y.K $ 3.y.9.",
"$ Y K ' Y | | 3.| Y Y | 3 q ' x + x | Y z ' Y | | | ' | | - # | ' ' ' | | | ' v ' | < h v x $ 8 | Y ",
"@ q | ' | ' | ' | | | 3.1 < @.3 o 6 | ' | | | ' | | | ' >.* @ h | | ' | | | | ' | @.< 3 @.x $ q | | ",
"# i | | | Y ' | ' ' | Y < < 1 < o x @.| | | K v ' Y ' ' h $ O h | | Y ' | | h | | | < , 6 6 $ h | | ",
"# v h h v h v h v h v d v | d < o 5 ' h v v d f d d a < d - $ v h n h h h d v d v a ' n d < # x v h ",
"+ < x 1 < 5 5 < < < < < < < < < + , 5 < < < 5 < < < < < a & @ < < 2 a < 2 < < < < < < 5 < < @ < 6 < "
};
